<svg width="49" height="49" viewBox="0 0 49 49" fill="none" xmlns="http://www.w3.org/2000/svg">
<g clip-path="url(#clip0_1479_262)">
<mask id="mask0_1479_262" style="mask-type:alpha" maskUnits="userSpaceOnUse" x="4" y="2" width="41" height="45">
<path d="M19.8004 3.52778C22.7242 1.8397 26.3266 1.8397 29.2504 3.52778L40.2602 9.88432C43.1841 11.5724 44.9852 14.6921 44.9852 18.0683V30.7813C44.9852 34.1575 43.1841 37.2772 40.2602 38.9653L29.2504 45.3218C26.3266 47.0099 22.7242 47.0099 19.8004 45.3218L8.79054 38.9653C5.8667 37.2772 4.06554 34.1575 4.06554 30.7813V18.0683C4.06554 14.6921 5.8667 11.5724 8.79054 9.88432L19.8004 3.52778Z" fill="#C4C4C4"/>
</mask>
<g mask="url(#mask0_1479_262)">
<path d="M58.7814 50.4126H49.4047C46.2722 50.4126 41.5573 48.7649 37.7729 46.3765C35.6275 47.7334 33.2712 48.7869 30.7642 49.4768C29.1462 50.0818 27.3944 50.4126 25.5653 50.4126C25.3116 50.4126 25.0594 50.4062 24.8088 50.3936C24.4754 50.4062 24.1403 50.4126 23.8038 50.4126C18.0533 50.4126 12.7361 48.5579 8.41753 45.414C5.36543 44.2434 2.19386 43.1447 -0.0829696 42.6584C-1.39838 42.3775 -2.68723 42.2256 -3.81338 42.093C-5.59235 41.8834 -6.96529 41.7217 -7.39552 41.1743C-8.0361 40.3591 -7.45835 38.6467 -7.10947 37.6126C-7.07569 37.5125 -7.04407 37.4188 -7.0159 37.3328C-6.67996 36.3078 -6.92343 35.8863 -7.42481 35.3403C-7.92619 34.7943 -7.92944 34.1461 -7.40901 33.5202C-7.06054 33.1011 -6.28432 32.9942 -5.89447 32.9405C-5.81853 32.9301 -5.75726 32.9217 -5.71665 32.9133C-5.86176 32.7993 -6.08136 32.6807 -6.32754 32.5478C-7.04394 32.161 -7.98543 31.6527 -7.97127 30.7805C-7.96574 30.4404 -7.58948 30.1269 -7.13468 29.7479C-6.73952 29.4186 -6.28506 29.0399 -5.96296 28.5515C-5.41302 27.7175 -6.43235 27.2056 -7.17643 26.8319C-7.36976 26.7349 -7.54451 26.6471 -7.66832 26.5655C-8.26868 26.1696 -8.5492 25.5704 -8.5498 24.7997C-8.55055 23.8531 -7.7727 23.5489 -6.90896 23.2112C-6.51642 23.0577 -6.10615 22.8972 -5.74315 22.6664C-4.37467 21.7962 -2.98359 20.6286 -1.97757 19.7221C-1.65323 17.8593 -1.13192 16.0641 -0.43588 14.3588C3.28197 4.59087 12.7895 -2.17969 23.6223 -2.17969C34.9051 -2.17969 45.4869 5.13771 48.8794 15.8983L58.7814 50.4126Z" fill="url(#paint0_angular_1479_262)"/>
<path d="M12.4172 28.6638C11.3324 30.726 10.7185 33.0745 10.7185 35.5663C10.7185 43.7659 17.3656 50.413 25.5651 50.413C33.7647 50.413 40.4117 43.7659 40.4117 35.5663C40.4117 32.5606 39.5185 29.7635 37.9831 27.426C36.5242 33.0062 31.4485 37.1239 25.411 37.1239H12.4172V28.6638Z" fill="url(#paint1_angular_1479_262)"/>
<path d="M15.3704 24.7733C18.0298 22.2604 21.6175 20.7197 25.5651 20.7197C29.3592 20.7197 32.8209 22.1429 35.4455 24.4846C35.2588 29.8657 30.8376 34.1708 25.411 34.1708H15.3704V24.7733Z" fill="url(#paint2_angular_1479_262)"/>
<path d="M52.759 45.8004C54.2562 47.2989 51.1874 50.4126 51.1874 50.4126C45.6824 50.4126 35.3384 49.4306 31.8675 40.0689L30.6107 36.0414C35.1987 34.0358 38.4048 29.4572 38.4048 24.1298C38.4048 16.9535 32.5873 11.136 25.4111 11.136H15.3933C9.44578 9.7175 3.21464 12.1783 -0.14853 17.3352C-0.625626 18.009 -1.58699 17.605 -1.37177 16.8079C1.61616 5.74097 11.9054 -2.17969 23.6223 -2.17969C33.56 -2.17969 42.9539 3.49705 47.3705 12.2033C48.5293 14.4875 48.2085 17.1749 47.4422 19.6189C45.6319 25.3929 43.7509 36.7847 52.759 45.8004Z" fill="url(#paint3_angular_1479_262)"/>
<path d="M29.7239 33.1995L25.8998 20.9452C25.0503 18.2227 23.4358 15.8565 21.3059 14.0891H25.4111C30.9564 14.0891 35.4517 18.5845 35.4517 24.1298C35.4517 28.1313 33.1109 31.5861 29.7239 33.1995Z" fill="url(#paint4_angular_1479_262)"/>
<g style="mix-blend-mode:overlay">
<path d="M19.9 3.72798C22.8238 2.0399 26.4262 2.0399 29.35 3.72798L40.3599 10.0845C43.2837 11.7726 45.0849 14.8923 45.0849 18.2685V30.9815C45.0849 34.3577 43.2837 37.4774 40.3599 39.1655L29.35 45.522C26.4262 47.2101 22.8238 47.2101 19.9 45.522L8.89015 39.1655C5.96631 37.4774 4.16515 34.3577 4.16515 30.9815V18.2685C4.16515 14.8923 5.96631 11.7726 8.89015 10.0845L19.9 3.72798Z" fill="url(#paint5_linear_1479_262)" style="mix-blend-mode:overlay"/>
<path d="M19.9 3.72798C22.8238 2.0399 26.4262 2.0399 29.35 3.72798L40.3599 10.0845C43.2837 11.7726 45.0849 14.8923 45.0849 18.2685V30.9815C45.0849 34.3577 43.2837 37.4774 40.3599 39.1655L29.35 45.522C26.4262 47.2101 22.8238 47.2101 19.9 45.522L8.89015 39.1655C5.96631 37.4774 4.16515 34.3577 4.16515 30.9815V18.2685C4.16515 14.8923 5.96631 11.7726 8.89015 10.0845L19.9 3.72798Z" fill="url(#paint6_linear_1479_262)" fill-opacity="0.5"/>
</g>
</g>
</g>
<defs>
<radialGradient id="paint0_angular_1479_262" cx="0" cy="0" r="1" gradientUnits="userSpaceOnUse" gradientTransform="translate(26.5139 24.2048) rotate(35.2605) scale(34.2778 45.008)">
<stop offset="0.101333" stop-color="#612566"/>
<stop offset="0.12497" stop-color="#ED6A84"/>
<stop offset="0.396084" stop-color="#9E235F"/>
<stop offset="0.509199" stop-color="#612566"/>
<stop offset="0.58545" stop-color="#2C1842"/>
<stop offset="0.865758" stop-color="#21142C"/>
</radialGradient>
<radialGradient id="paint1_angular_1479_262" cx="0" cy="0" r="1" gradientUnits="userSpaceOnUse" gradientTransform="translate(29.3661 26.1573) rotate(-31.3229) scale(25.0428 40.6122)">
<stop offset="0.101333" stop-color="#612566"/>
<stop offset="0.12497" stop-color="#ED6A84"/>
<stop offset="0.396084" stop-color="#9E235F"/>
<stop offset="0.509199" stop-color="#612566"/>
<stop offset="0.58545" stop-color="#2C1842"/>
<stop offset="0.865758" stop-color="#21142C"/>
</radialGradient>
<radialGradient id="paint2_angular_1479_262" cx="0" cy="0" r="1" gradientUnits="userSpaceOnUse" gradientTransform="translate(29.3661 26.1573) rotate(-31.3229) scale(25.0428 40.6122)">
<stop offset="0.101333" stop-color="#612566"/>
<stop offset="0.12497" stop-color="#ED6A84"/>
<stop offset="0.396084" stop-color="#9E235F"/>
<stop offset="0.509199" stop-color="#612566"/>
<stop offset="0.58545" stop-color="#2C1842"/>
<stop offset="0.865758" stop-color="#21142C"/>
</radialGradient>
<radialGradient id="paint3_angular_1479_262" cx="0" cy="0" r="1" gradientUnits="userSpaceOnUse" gradientTransform="translate(28.3045 40.4278) rotate(54.3486) scale(22.5364 12.1592)">
<stop offset="0.000195603" stop-color="#2C1842"/>
<stop offset="0.0990559" stop-color="#21142C"/>
<stop offset="0.220158" stop-color="#080808"/>
<stop offset="0.381095" stop-color="#ED6A84"/>
<stop offset="0.589726" stop-color="#9E235F"/>
<stop offset="0.6817" stop-color="#612566"/>
</radialGradient>
<radialGradient id="paint4_angular_1479_262" cx="0" cy="0" r="1" gradientUnits="userSpaceOnUse" gradientTransform="translate(28.3045 40.4278) rotate(54.3486) scale(22.5364 12.1592)">
<stop offset="0.000195603" stop-color="#2C1842"/>
<stop offset="0.0990559" stop-color="#21142C"/>
<stop offset="0.220158" stop-color="#080808"/>
<stop offset="0.381095" stop-color="#ED6A84"/>
<stop offset="0.589726" stop-color="#9E235F"/>
<stop offset="0.6817" stop-color="#612566"/>
</radialGradient>
<linearGradient id="paint5_linear_1479_262" x1="44.1156" y1="10.45" x2="22.3387" y2="54.4503" gradientUnits="userSpaceOnUse">
<stop stop-color="#C441F4"/>
<stop offset="1" stop-color="#00DAEA"/>
</linearGradient>
<linearGradient id="paint6_linear_1479_262" x1="24.625" y1="1" x2="24.625" y2="48.25" gradientUnits="userSpaceOnUse">
<stop stop-color="white"/>
<stop offset="1" stop-color="#2596FF" stop-opacity="0.79"/>
</linearGradient>
<clipPath id="clip0_1479_262">
<rect width="47.25" height="47.25" fill="white" transform="translate(0.900146 0.799805)"/>
</clipPath>
</defs>
</svg>
