<svg width="56" height="56" viewBox="0 0 56 56" fill="none" xmlns="http://www.w3.org/2000/svg">
<rect width="56" height="56" rx="16" fill="url(#paint0_linear_1527_802)"/>
<path d="M20.0341 43C22.5672 43 23.9119 40.7378 24.3074 39.4013C24.3137 39.3802 24.3195 39.3587 24.325 39.3367C25.2464 35.5203 26.7142 29.4714 27.8016 25.0716H31.6922C32.4238 25.0716 33.017 24.4786 33.017 23.7469C33.017 23.0151 32.4238 22.4222 31.6922 22.4222H28.4601C28.8081 21.0359 29.0628 20.0485 29.1631 19.7116L29.2745 19.3344C29.6852 17.9329 30.6468 14.6501 32.134 14.6501C33.5131 14.6501 33.7187 16.774 33.728 16.8766C33.7868 17.6038 34.4211 18.1531 35.15 18.0902C35.8795 18.0345 36.4255 17.3969 36.3692 16.6678C36.2454 15.0531 35.1998 12 32.1336 12C28.6617 12 27.3583 16.4501 26.7321 18.5892L26.6255 18.9501C26.4982 19.3734 26.1643 20.6776 25.7289 22.4222H21.0939C20.3621 22.4222 19.7692 23.0151 19.7692 23.7469C19.7692 24.4786 20.3621 25.0716 21.0939 25.0716H25.0726C23.7124 30.5884 21.9546 37.8652 21.7613 38.6663C21.689 38.8762 21.1459 40.3504 20.0348 40.3504C18.3381 40.3504 17.6035 37.9689 17.5977 37.9511C17.3941 37.2487 16.6612 36.8422 15.9567 37.0471C15.2541 37.2509 14.849 37.9855 15.0526 38.6883C15.5162 40.2894 17.0865 43 20.0341 43Z" fill="white"/>
<path d="M39.6804 39.5839C40.4611 39.5839 41.1171 39.0294 41.1171 38.1467C41.1171 37.7367 40.9531 37.3667 40.604 36.956L37.8532 33.7945L40.5224 30.674C40.7687 30.3659 40.9531 30.0375 40.9531 29.6064C40.9531 28.8255 40.3164 28.251 39.4951 28.251C38.941 28.251 38.5103 28.5999 38.1401 29.0523L36.0669 31.7614L34.0346 29.0519C33.6235 28.5392 33.193 28.251 32.5772 28.251C31.7963 28.251 31.14 28.8059 31.14 29.6886C31.14 30.0986 31.3045 30.4686 31.6527 30.8786L34.2193 33.8352L31.4063 37.1609C31.1394 37.4689 30.9756 37.7974 30.9756 38.2285C30.9756 39.0092 31.6121 39.5835 32.4328 39.5835C32.9872 39.5835 33.4181 39.2346 33.7877 38.7825L36.0043 35.8677L38.2215 38.7825C38.6335 39.2966 39.0646 39.5839 39.6804 39.5839Z" fill="white"/>
<defs>
<linearGradient id="paint0_linear_1527_802" x1="0" y1="28" x2="56" y2="28" gradientUnits="userSpaceOnUse">
<stop stop-color="#0F4058"/>
<stop offset="0.465" stop-color="#1F2E7F"/>
<stop offset="1" stop-color="#5A2B95"/>
</linearGradient>
</defs>
</svg>
