<svg width="56" height="56" viewBox="0 0 56 56" fill="none" xmlns="http://www.w3.org/2000/svg">
<rect width="56" height="56" rx="16" fill="url(#paint0_linear_1527_801)"/>
<path fill-rule="evenodd" clip-rule="evenodd" d="M27.6523 12C29.0777 12 30.2886 13.8391 31.0959 16.811C31.3759 17.8428 31.6156 19.0209 31.8048 20.3101C33.0157 19.8307 34.156 19.4498 35.1879 19.1748C38.1622 18.3877 40.3596 18.5189 41.0735 19.7525C41.7849 20.9862 40.7985 22.9539 38.6289 25.1361C37.8771 25.893 36.9765 26.6902 35.9523 27.5C36.361 27.8229 36.752 28.1458 37.1203 28.4637C36.7848 28.6983 36.5098 29.0086 36.3181 29.3719C35.8942 29.0061 35.4401 28.6353 34.9608 28.2594C34.8624 28.3325 34.7615 28.4057 34.6606 28.4814C34.4436 30.043 33.7171 31.4406 32.655 32.5027L32.5944 32.5582C32.4077 32.7398 32.2135 32.9114 32.0091 33.0703C31.9965 33.1965 31.9814 33.3226 31.9663 33.4487C33.2352 33.9634 34.426 34.367 35.4956 34.6496C37.92 35.2904 39.6179 35.3383 40.0215 34.642C40.236 34.2712 40.0846 33.6884 39.633 32.9568C39.9988 32.7979 40.3217 32.5557 40.5791 32.2555C41.3081 33.4487 41.5125 34.4856 41.0735 35.245C40.3621 36.4811 38.1673 36.6123 35.1904 35.8252C34.1586 35.5527 33.0183 35.1693 31.8048 34.6899C31.6156 35.9791 31.3759 37.1572 31.0959 38.189C30.2886 41.1609 29.0777 43 27.6523 43C26.2269 43 25.016 41.1609 24.2087 38.189C23.9287 37.1572 23.689 35.9791 23.4998 34.6899C23.0608 34.864 22.632 35.0255 22.2157 35.1718C22.1829 34.7505 22.0492 34.3595 21.8398 34.0189C22.3242 33.8473 22.8237 33.6581 23.3383 33.4487C23.3232 33.3251 23.3106 33.199 23.2954 33.0728C23.0709 32.8962 22.8565 32.707 22.6547 32.5052L22.6496 32.5002C21.5875 31.4381 20.861 30.0404 20.644 28.4788C20.5431 28.4057 20.4422 28.33 20.3438 28.2568C19.2615 29.0994 18.3155 29.9294 17.5359 30.714C15.7649 32.5002 14.8744 33.9482 15.278 34.6471C15.5026 35.0356 16.1282 35.192 17.0566 35.144C17.049 35.2197 17.0465 35.2979 17.0465 35.3761C17.0465 35.7066 17.1096 36.022 17.2206 36.3121C15.7397 36.3777 14.6827 36.0396 14.2285 35.2525C13.5171 34.0164 14.5035 32.0486 16.6731 29.8664C17.4274 29.1095 18.3256 28.3123 19.3498 27.5025C18.3281 26.6927 17.4274 25.8955 16.6731 25.1387C14.5035 22.9565 13.5171 20.9887 14.2285 19.755C14.9425 18.5214 17.1373 18.3902 20.1142 19.1773C21.146 19.4498 22.2863 19.8307 23.4998 20.3126C23.5679 19.8459 23.6436 19.3943 23.7243 18.9604C24.075 19.137 24.4685 19.2354 24.8873 19.2354H24.91C24.8167 19.7323 24.7334 20.2546 24.6577 20.7944C24.7713 20.8424 24.8823 20.8928 24.9958 20.9433C25.8157 20.6103 26.7113 20.4261 27.6498 20.4261C28.5883 20.4261 29.4864 20.6103 30.3063 20.9408C30.4173 20.8903 30.5308 20.8424 30.6418 20.7944C30.4526 19.4347 30.2079 18.201 29.9178 17.1339C29.2618 14.717 28.4545 13.221 27.6498 13.221C27.2032 13.221 26.7542 13.6827 26.3329 14.5051C26.0074 14.2856 25.6315 14.1368 25.2229 14.0838C25.9116 12.7543 26.7365 12 27.6523 12ZM27.6523 23.403C29.4334 23.403 30.8789 24.0791 30.8789 24.9116C30.8789 25.7467 29.4334 26.4202 27.6523 26.4202C25.8712 26.4202 24.4257 25.7441 24.4257 24.9116C24.4257 24.0791 25.8712 23.403 27.6523 23.403ZM24.4257 29.0641V30.2221C25.0008 32.2605 30.6695 31.8669 30.8789 30.1187V28.9607C30.5964 30.8805 24.8798 31.0193 24.4257 29.0641ZM24.4105 25.6382V26.7709C24.9857 28.7614 30.6872 28.494 30.8966 26.7861V25.6558C30.6115 27.5303 24.8646 27.5479 24.4105 25.6382ZM24.4105 27.3057V28.4637C24.9857 30.5021 30.6872 30.2271 30.8966 28.4788V27.3209C30.6115 29.2407 24.8646 29.2609 24.4105 27.3057ZM27.6523 21.4377C31 21.4377 33.7146 24.1523 33.7146 27.5C33.7146 30.8477 31 33.5623 27.6523 33.5623C24.3046 33.5623 21.59 30.8477 21.59 27.5C21.59 24.1523 24.3046 21.4377 27.6523 21.4377ZM32.0091 21.9246C32.2362 22.1012 32.4532 22.293 32.655 22.4973C33.7171 23.5594 34.4436 24.9596 34.6606 26.5212C34.7615 26.5943 34.8624 26.6675 34.9608 26.7432C36.0431 25.9006 36.9891 25.0706 37.7687 24.286C39.5346 22.5074 40.4252 21.0593 40.024 20.3605C39.6204 19.6642 37.9226 19.7122 35.4982 20.3529C34.4285 20.6355 33.2377 21.0391 31.9688 21.5563C31.9814 21.6749 31.9965 21.801 32.0091 21.9246ZM30.2987 34.0643C29.4813 34.3948 28.5883 34.5764 27.6548 34.5764C26.7189 34.5764 25.8258 34.3948 25.0084 34.0618C24.8924 34.1122 24.7763 34.1652 24.6603 34.2131C24.8495 35.5729 25.0942 36.8066 25.3843 37.8737C26.0402 40.2905 26.8475 41.7865 27.6548 41.7865C28.4596 41.7865 29.2694 40.2905 29.9228 37.8737C30.2104 36.8066 30.4551 35.5704 30.6443 34.2131C30.5283 34.1652 30.4122 34.1147 30.2987 34.0643ZM20.6465 26.5161C20.8635 24.957 21.59 23.5569 22.6521 22.4973L22.7127 22.4418C22.8968 22.2627 23.0911 22.0911 23.2929 21.9322C23.3055 21.8061 23.3207 21.6799 23.3358 21.5538C22.0643 21.0391 20.8761 20.6355 19.8064 20.3504C17.382 19.7096 15.6842 19.6617 15.2806 20.358C14.8744 21.0568 15.7649 22.5049 17.5334 24.2834C18.3129 25.068 19.259 25.898 20.3413 26.7406C20.4422 26.665 20.5431 26.5918 20.6465 26.5161ZM38.4195 28.8396C39.3454 28.8396 40.0972 29.5914 40.0972 30.5173C40.0972 31.4431 39.3454 32.1949 38.4195 32.1949C37.4937 32.1949 36.7419 31.4431 36.7419 30.5173C36.7419 29.5914 37.4912 28.8396 38.4195 28.8396ZM19.6374 33.6455C20.5633 33.6455 21.3151 34.3973 21.3151 35.3232C21.3151 36.249 20.5633 37.0008 19.6374 37.0008C18.7115 37.0008 17.9598 36.249 17.9598 35.3232C17.9598 34.3973 18.7115 33.6455 19.6374 33.6455ZM24.8848 14.9668C25.8107 14.9668 26.5625 15.7186 26.5625 16.6445C26.5625 17.5703 25.8107 18.3221 24.8848 18.3221C23.9589 18.3221 23.2071 17.5703 23.2071 16.6445C23.2071 15.7186 23.9589 14.9668 24.8848 14.9668Z" fill="white"/>
<defs>
<linearGradient id="paint0_linear_1527_801" x1="0" y1="28" x2="56" y2="28" gradientUnits="userSpaceOnUse">
<stop stop-color="#0F4058"/>
<stop offset="0.465" stop-color="#1F2E7F"/>
<stop offset="1" stop-color="#5A2B95"/>
</linearGradient>
</defs>
</svg>
