<svg width="56" height="56" viewBox="0 0 56 56" fill="none" xmlns="http://www.w3.org/2000/svg">
<rect width="56" height="56" rx="16" fill="url(#paint0_linear_1527_798)"/>
<g clip-path="url(#clip0_1527_798)">
<path d="M41.45 24.0774L38.4792 21.6232V16.8441C38.4771 16.7202 38.4395 16.5996 38.3708 16.4965C38.3021 16.3935 38.2052 16.3124 38.0917 16.2628L31.6979 13.3566H31.4396L31.0521 13.4857L27.5 15.8107L23.9479 13.4212L23.5604 13.292H23.3021L16.9083 16.2628C16.7948 16.3124 16.6979 16.3935 16.6292 16.4965C16.5605 16.5996 16.5229 16.7202 16.5208 16.8441V21.6232L13.55 24.0774C13.4604 24.128 13.3879 24.2042 13.3419 24.2963C13.2959 24.3883 13.2784 24.492 13.2917 24.5941V30.4066C13.2784 30.5086 13.2959 30.6123 13.3419 30.7044C13.3879 30.7964 13.4604 30.8726 13.55 30.9232L16.5208 33.3774V38.1566C16.5229 38.2804 16.5605 38.4011 16.6292 38.5041C16.6979 38.6072 16.7948 38.6883 16.9083 38.7378L23.3021 41.6441H23.5604L23.9479 41.5149L27.5 39.1899L31.0521 41.5795L31.4396 41.7087H31.6979L38.0917 38.8024C38.2052 38.7529 38.3021 38.6718 38.3708 38.5687C38.4395 38.4656 38.4771 38.345 38.4792 38.2212V33.3774L41.45 30.9232C41.5292 30.8775 41.5949 30.8115 41.6403 30.7321C41.6857 30.6527 41.7092 30.5626 41.7083 30.4712V24.5295C41.7092 24.438 41.6857 24.348 41.6403 24.2685C41.5949 24.1891 41.5292 24.1231 41.45 24.0774ZM38.1563 28.4691H39.125V29.5024L36.8646 31.3107L36.6063 31.5045L36.3479 31.3753C36.2354 31.3106 36.1102 31.2709 35.9809 31.2589C35.8516 31.2469 35.7212 31.2629 35.5987 31.3058C35.4761 31.3487 35.3642 31.4175 35.2706 31.5075C35.177 31.5975 35.1039 31.7066 35.0563 31.8274C34.9404 32.0509 34.916 32.3106 34.9884 32.5517C35.0607 32.7928 35.224 32.9963 35.4438 33.1191L35.8958 33.3128V36.8003L31.6333 38.8024L28.9208 36.9941L28.4688 36.6712V28.4691H29.4375C29.6944 28.4691 29.9408 28.367 30.1225 28.1853C30.3042 28.0037 30.4063 27.7573 30.4063 27.5003C30.4063 27.2434 30.3042 26.997 30.1225 26.8153C29.9408 26.6336 29.6944 26.5316 29.4375 26.5316H28.4688V18.2649L28.9208 17.942L31.6333 16.1337L35.8958 18.1357V21.6232L35.4438 21.817C35.224 21.9398 35.0607 22.1432 34.9884 22.3843C34.916 22.6254 34.9404 22.8852 35.0563 23.1087C35.1213 23.2789 35.2363 23.4254 35.3861 23.5292C35.536 23.6329 35.7136 23.6889 35.8958 23.6899L36.3479 23.5607L36.6063 23.4316L36.8646 23.6253L39.125 25.4982V26.5316H38.1563C37.8993 26.5316 37.6529 26.6336 37.4713 26.8153C37.2896 26.997 37.1875 27.2434 37.1875 27.5003C37.1875 27.7573 37.2896 28.0037 37.4713 28.1853C37.6529 28.367 37.8993 28.4691 38.1563 28.4691ZM25.5625 28.4691H26.5313V36.7357L26.0792 37.0587L23.3667 38.867L19.1042 36.8649V33.3774L19.5563 33.1837C19.776 33.0609 19.9393 32.8574 20.0117 32.6163C20.084 32.3752 20.0596 32.1154 19.9438 31.892C19.8961 31.7712 19.823 31.6621 19.7294 31.5721C19.6358 31.4821 19.5239 31.4133 19.4014 31.3704C19.2788 31.3275 19.1485 31.3115 19.0192 31.3235C18.8899 31.3355 18.7647 31.3752 18.6521 31.4399L18.3938 31.5691L18.1354 31.3753L15.875 29.5024V28.4691H16.8438C17.1007 28.4691 17.3471 28.367 17.5288 28.1853C17.7105 28.0037 17.8125 27.7573 17.8125 27.5003C17.8125 27.2434 17.7105 26.997 17.5288 26.8153C17.3471 26.6336 17.1007 26.5316 16.8438 26.5316H15.875V25.4982L18.1354 23.6899L18.3938 23.4962L18.6521 23.6253L19.1042 23.7545C19.2864 23.7535 19.4641 23.6975 19.6139 23.5937C19.7637 23.49 19.8787 23.3434 19.9438 23.1732C20.0596 22.9498 20.084 22.69 20.0117 22.4489C19.9393 22.2078 19.776 22.0043 19.5563 21.8816L19.1042 21.6878V18.1357L23.3667 16.1337L26.0792 17.942L26.5313 18.2649V26.5316H25.5625C25.3056 26.5316 25.0592 26.6336 24.8775 26.8153C24.6958 26.997 24.5938 27.2434 24.5938 27.5003C24.5938 27.7573 24.6958 28.0037 24.8775 28.1853C25.0592 28.367 25.3056 28.4691 25.5625 28.4691Z" fill="white"/>
<path d="M20.9772 18.3937C20.8201 18.5972 20.7348 18.847 20.7348 19.1041C20.7348 19.3612 20.8201 19.611 20.9772 19.8145L22.6563 21.4291V23.2374L20.073 25.8208V29.1791L22.6563 31.7624V33.5708L20.9772 35.1854C20.8201 35.3889 20.7348 35.6387 20.7348 35.8958C20.7348 36.1529 20.8201 36.4027 20.9772 36.6062C21.0722 36.6947 21.1841 36.7631 21.3061 36.8075C21.4282 36.8519 21.5579 36.8713 21.6876 36.8645C21.8173 36.8713 21.947 36.8519 22.069 36.8075C22.1911 36.7631 22.3029 36.6947 22.398 36.6062L24.5938 34.3458V30.9874L22.0105 28.4041V26.5958L24.5938 24.0124V20.6541L22.398 18.3937C22.1945 18.2366 21.9447 18.1514 21.6876 18.1514C21.4305 18.1514 21.1807 18.2366 20.9772 18.3937Z" fill="white"/>
<path d="M32.3438 21.4291L34.0229 19.8145C34.18 19.611 34.2652 19.3612 34.2652 19.1041C34.2652 18.847 34.18 18.5972 34.0229 18.3937C33.8194 18.2366 33.5696 18.1514 33.3125 18.1514C33.0554 18.1514 32.8056 18.2366 32.6021 18.3937L30.4062 20.6541V24.0124L32.9896 26.5958V28.4041L30.4062 30.9874V34.3458L32.6021 36.6062C32.8005 36.7746 33.0523 36.867 33.3125 36.867C33.5727 36.867 33.8245 36.7746 34.0229 36.6062C34.18 36.4027 34.2652 36.1529 34.2652 35.8958C34.2652 35.6387 34.18 35.3889 34.0229 35.1854L32.3438 33.5708V31.7624L34.9271 29.1791V25.8208L32.3438 23.2374V21.4291Z" fill="white"/>
</g>
<defs>
<linearGradient id="paint0_linear_1527_798" x1="0" y1="28" x2="56" y2="28" gradientUnits="userSpaceOnUse">
<stop stop-color="#0F4058"/>
<stop offset="0.465" stop-color="#1F2E7F"/>
<stop offset="1" stop-color="#5A2B95"/>
</linearGradient>
<clipPath id="clip0_1527_798">
<rect width="31" height="31" fill="white" transform="translate(12 12)"/>
</clipPath>
</defs>
</svg>
