<svg width="225" height="35" viewBox="0 0 225 35" fill="none" xmlns="http://www.w3.org/2000/svg">
<path d="M1 16.3V18.1M4.6 15.4V19M8.2 13.6V20.8M11.8 10V24.4M15.4 6.4V28M19 1V33.4M22.6 8.2V26.2M26.2 9.1V25.3M29.8 11.8V22.6M33.4 14.5V19.9M37 16.3V18.1M40.6 16.3V18.1M44.2 16.3V18.1M47.8 16.3V18.1M51.4 12.7V21.7M55 8.2V26.2M58.6 10V24.4M62.2 6.4V28M65.8 1V33.4M69.4 3.7V30.7M73 9.1V25.3M76.6 11.8V22.6M80.2 14.5V19.9M83.8 16.3V18.1M87.4 16.3V18.1M91 16.3V18.1M94.6 16.3V18.1M98.2 15.4V19M101.8 13.6V20.8M105.4 10V24.4M109 6.4V28M112.6 1V16.3V33.4M116.2 8.2V26.2M119.8 8.2V26.2M123.4 3.7V30.7M127 1V33.4M130.6 8.2V26.2M134.2 13.6V20.8M137.8 13.6V20.8M141.4 13.6V20.8M145 12.7V21.7M148.6 8.2V26.2M152.2 1V33.4M155.8 3.7V30.7M159.4 1V33.4M163 3.7V30.7M166.6 1V33.4M170.2 8.2V26.2M173.8 13.6V20.8M177.4 16.3V18.1M181 16.3V18.1M184.6 12.7V21.7M188.2 8.2V26.2M191.8 12.7V21.7M195.4 3.7V30.7M199 1V33.4M202.6 3.7V30.7M206.2 1V33.4M209.8 8.2V26.2M213.4 8.2V26.2M217 12.7V21.7M220.6 14.5V19.9M224.2 16.3V18.1" stroke="url(#paint0_linear_1537_889)" stroke-width="1.35" stroke-linecap="round"/>
<defs>
<linearGradient id="paint0_linear_1537_889" x1="13.6" y1="33.4" x2="224.2" y2="33.4" gradientUnits="userSpaceOnUse">
<stop stop-color="#00E9FF"/>
<stop offset="1" stop-color="#FF00D8"/>
</linearGradient>
</defs>
</svg>
