<svg width="56" height="56" viewBox="0 0 56 56" fill="none" xmlns="http://www.w3.org/2000/svg">
<rect width="56" height="56" rx="16" fill="url(#paint0_linear_1527_797)"/>
<g clip-path="url(#clip0_1527_797)">
<path d="M40.4426 27.2046V23.9216C40.9997 23.7675 41.4114 23.2618 41.4114 22.6573C41.4114 21.9308 40.8204 21.3398 40.0939 21.3398C39.9088 21.3398 39.7335 21.3786 39.5737 21.4474L37.2826 18.5837C37.4405 18.3667 37.5364 18.1013 37.5364 17.8126C37.5364 17.0861 36.9454 16.4951 36.2189 16.4951C35.8304 16.4951 35.4846 16.6666 35.2433 16.9349L31.6987 15.1621C31.7151 15.0798 31.7239 14.9945 31.7239 14.9064C31.7239 14.1798 31.1329 13.5889 30.4064 13.5889C29.8009 13.5889 29.2952 14.0006 29.1412 14.5576H24.8893C24.7353 14.0006 24.2296 13.5889 23.6251 13.5889C22.8986 13.5889 22.3076 14.1798 22.3076 14.9064C22.3076 14.9945 22.3173 15.0798 22.3338 15.1621L19.7569 16.4506C19.5157 16.1832 19.1698 16.0107 18.7814 16.0107C18.0548 16.0107 17.4639 16.6017 17.4639 17.3282C17.4639 17.5927 17.5433 17.8378 17.678 18.0441L15.4857 20.5106C15.3103 20.4234 15.1156 20.3701 14.9064 20.3701C14.1798 20.3701 13.5889 20.9611 13.5889 21.6876C13.5889 22.2931 14.0006 22.7978 14.5576 22.9518V26.2349C14.0006 26.389 13.5889 26.8946 13.5889 27.4991C13.5889 28.2257 14.1798 28.8166 14.9064 28.8166C15.4353 28.8166 15.8887 28.5018 16.0989 28.0504L19.4159 28.6035C19.4847 29.2671 20.0388 29.7864 20.7189 29.7864C20.807 29.7864 20.8923 29.7767 20.9746 29.7602L21.7787 31.3674C21.5113 31.6096 21.3389 31.9554 21.3389 32.3439C21.3389 33.0704 21.9298 33.6614 22.6564 33.6614C23.1117 33.6614 23.5137 33.4289 23.7511 33.0762L27.1591 34.2126C27.1572 34.2358 27.1514 34.2581 27.1514 34.2814C27.1514 34.8868 27.5631 35.3925 28.1201 35.5466V38.8287C27.5631 38.9827 27.1514 39.4884 27.1514 40.0939C27.1514 40.8204 27.7423 41.4114 28.4689 41.4114C29.1954 41.4114 29.7864 40.8204 29.7864 40.0939C29.7864 39.4894 29.3747 38.9827 28.8176 38.8287V35.5456C29.3747 35.3916 29.7864 34.8859 29.7864 34.2804C29.7864 33.8425 29.5694 33.457 29.24 33.2167L29.9007 31.4536L32.9648 32.3293C32.9648 32.3342 32.9639 32.339 32.9639 32.3439C32.9639 32.9484 33.3756 33.455 33.9326 33.6091V38.8296C33.3756 38.9837 32.9639 39.4894 32.9639 40.0948C32.9639 40.8214 33.5548 41.4123 34.2814 41.4123C35.0079 41.4123 35.5989 40.8214 35.5989 40.0948C35.5989 39.4903 35.1872 38.9837 34.6301 38.8296V33.6091C35.1872 33.455 35.5989 32.9493 35.5989 32.3439C35.5989 32.1995 35.5698 32.0629 35.5272 31.9331L39.2356 29.4599C39.4671 29.6614 39.7645 29.7864 40.0939 29.7864C40.8204 29.7864 41.4114 29.1954 41.4114 28.4689C41.4114 27.8644 40.9997 27.3587 40.4426 27.2046ZM32.6868 26.4655C32.6849 26.4219 32.68 26.3783 32.6732 26.3357L35.627 25.023L38.8364 27.8314L32.6868 26.4655ZM31.3751 27.1514C31.0331 27.1514 30.7551 26.8733 30.7551 26.5314C30.7551 26.1894 31.0331 25.9114 31.3751 25.9114C31.7171 25.9114 31.9951 26.1894 31.9951 26.5314C31.9951 26.8733 31.7171 27.1514 31.3751 27.1514ZM31.3751 25.2139C30.6486 25.2139 30.0576 25.8048 30.0576 26.5314C30.0576 26.9692 30.2746 27.3548 30.604 27.5941L29.4744 30.6069L27.6319 30.0809L26.2126 25.1151L31.5049 21.4764L32.1133 21.9501L35.0467 24.5173L32.3875 25.6992C32.1462 25.4057 31.7849 25.2139 31.3751 25.2139ZM20.8458 27.164L19.8683 21.5423L23.3674 21.1926V21.1887C23.5573 21.6828 24.033 22.0364 24.5939 22.0364C24.5987 22.0364 24.6026 22.0354 24.6074 22.0354L25.4047 24.8244L21.5626 27.4652C21.3641 27.2986 21.118 27.1911 20.8458 27.164ZM24.5939 21.3389C24.2519 21.3389 23.9739 21.0608 23.9739 20.7189C23.9739 20.3769 24.2519 20.0989 24.5939 20.0989C24.9358 20.0989 25.2139 20.3769 25.2139 20.7189C25.2139 21.0608 24.9358 21.3389 24.5939 21.3389ZM21.9589 28.0397L25.6062 25.5316L26.8414 29.8551L22.0344 28.4815C22.0344 28.4766 22.0354 28.4727 22.0354 28.4679C22.0364 28.3177 22.0054 28.1753 21.9589 28.0397ZM35.3751 18.8162C35.6047 19.009 35.8963 19.1301 36.2189 19.1301C36.4039 19.1301 36.5792 19.0914 36.7391 19.0226L39.0302 21.8852C38.8723 22.1022 38.7764 22.3677 38.7764 22.6564C38.7764 22.7232 38.7861 22.7871 38.7957 22.8511L35.75 24.2044L32.558 21.4115L32.1085 21.0618L35.3751 18.8162ZM39.3683 27.3703L36.3283 24.7111L39.0806 23.4885C39.2511 23.6949 39.4797 23.8479 39.7451 23.9206V27.2037C39.6105 27.2415 39.4826 27.2957 39.3683 27.3703ZM40.7139 22.6564C40.7139 22.9983 40.4358 23.2764 40.0939 23.2764C39.7519 23.2764 39.4739 22.9983 39.4739 22.6564C39.4739 22.3144 39.7519 22.0364 40.0939 22.0364C40.4358 22.0364 40.7139 22.3144 40.7139 22.6564ZM36.2189 17.1926C36.5608 17.1926 36.8389 17.4706 36.8389 17.8126C36.8389 18.1546 36.5608 18.4326 36.2189 18.4326C35.8769 18.4326 35.5989 18.1546 35.5989 17.8126C35.5989 17.4706 35.8769 17.1926 36.2189 17.1926ZM30.4064 14.2864C30.7483 14.2864 31.0264 14.5644 31.0264 14.9064C31.0264 15.2483 30.7483 15.5264 30.4064 15.5264C30.0644 15.5264 29.7864 15.2483 29.7864 14.9064C29.7864 14.5644 30.0644 14.2864 30.4064 14.2864ZM30.4064 16.2239C30.7948 16.2239 31.1407 16.0524 31.3819 15.7841L34.9266 17.5569C34.9101 17.6392 34.9014 17.7245 34.9014 17.8126C34.9014 17.9637 34.9324 18.1061 34.9789 18.2418L31.5301 20.6133L24.8419 15.4111C24.8622 15.3617 24.8758 15.3084 24.8903 15.2551H29.1421C29.2952 15.8121 29.8009 16.2239 30.4064 16.2239ZM23.6251 14.2864C23.9671 14.2864 24.2451 14.5644 24.2451 14.9064C24.2451 15.2483 23.9671 15.5264 23.6251 15.5264C23.2831 15.5264 23.0051 15.2483 23.0051 14.9064C23.0051 14.5644 23.2831 14.2864 23.6251 14.2864ZM22.6496 15.7841C22.8908 16.0514 23.2366 16.2239 23.6251 16.2239C23.9196 16.2239 24.1899 16.1231 24.4098 15.9584L30.9276 21.0269L26.0111 24.4069L25.2778 21.8397C25.6556 21.6082 25.9114 21.1945 25.9114 20.7189C25.9114 19.9923 25.3204 19.4014 24.5939 19.4014C23.9419 19.4014 23.4033 19.878 23.2986 20.5009V20.498L19.7482 20.8526L19.3413 18.5159C19.7879 18.3047 20.0989 17.8533 20.0989 17.3282C20.0989 17.2401 20.0892 17.1548 20.0727 17.0725L22.6496 15.7841ZM16.1318 21.2139C16.0989 21.1286 16.0592 21.0473 16.0098 20.9717L18.2021 18.5053C18.3406 18.5741 18.4927 18.6167 18.6545 18.6331L19.0526 20.9223L16.1318 21.2139ZM18.7814 16.7082C19.1233 16.7082 19.4014 16.9863 19.4014 17.3282C19.4014 17.6702 19.1233 17.9482 18.7814 17.9482C18.4394 17.9482 18.1614 17.6702 18.1614 17.3282C18.1614 16.9863 18.4394 16.7082 18.7814 16.7082ZM14.2864 21.6876C14.2864 21.3456 14.5644 21.0676 14.9064 21.0676C15.2483 21.0676 15.5264 21.3456 15.5264 21.6876C15.5264 22.0296 15.2483 22.3076 14.9064 22.3076C14.5644 22.3076 14.2864 22.0296 14.2864 21.6876ZM14.9064 28.1201C14.5644 28.1201 14.2864 27.8421 14.2864 27.5001C14.2864 27.1581 14.5644 26.8801 14.9064 26.8801C15.2483 26.8801 15.5264 27.1581 15.5264 27.5001C15.5264 27.8421 15.2483 28.1201 14.9064 28.1201ZM19.5263 27.9167L16.2093 27.3635C16.1522 26.8201 15.7686 26.3773 15.2541 26.2349V22.9518C15.7414 22.8172 16.1144 22.4132 16.2006 21.9085L19.1718 21.6111L20.158 27.2812C19.8809 27.4129 19.6571 27.6377 19.5263 27.9167ZM20.0989 28.4689C20.0989 28.1269 20.3769 27.8489 20.7189 27.8489C21.0608 27.8489 21.3389 28.1269 21.3389 28.4689C21.3389 28.8108 21.0608 29.0889 20.7189 29.0889C20.3769 29.0889 20.0989 28.8108 20.0989 28.4689ZM22.6564 32.9639C22.3144 32.9639 22.0364 32.6858 22.0364 32.3439C22.0364 32.0019 22.3144 31.7239 22.6564 31.7239C22.9983 31.7239 23.2764 32.0019 23.2764 32.3439C23.2764 32.6858 22.9983 32.9639 22.6564 32.9639ZM23.9671 32.4126C23.9681 32.3894 23.9739 32.3671 23.9739 32.3439C23.9739 31.6173 23.3829 31.0264 22.6564 31.0264C22.5682 31.0264 22.483 31.0361 22.4006 31.0525L21.5966 29.4454C21.6915 29.3601 21.7729 29.2623 21.8397 29.1528L27.0671 30.6456L27.7859 33.1605C27.6231 33.2603 27.4807 33.3911 27.3742 33.55L23.9671 32.4126ZM29.0889 40.0939C29.0889 40.4358 28.8108 40.7139 28.4689 40.7139C28.1269 40.7139 27.8489 40.4358 27.8489 40.0939C27.8489 39.7519 28.1269 39.4739 28.4689 39.4739C28.8108 39.4739 29.0889 39.7519 29.0889 40.0939ZM28.4689 34.9014C28.1269 34.9014 27.8489 34.6233 27.8489 34.2814C27.8489 33.9394 28.1269 33.6614 28.4689 33.6614C28.8108 33.6614 29.0889 33.9394 29.0889 34.2814C29.0889 34.6233 28.8108 34.9014 28.4689 34.9014ZM28.5861 32.9755C28.5464 32.9716 28.5086 32.9639 28.4689 32.9639C28.464 32.9639 28.4601 32.9648 28.4553 32.9648L27.8566 30.8704L29.2284 31.2618L28.5861 32.9755ZM30.1467 30.7997L31.2579 27.8363C31.2976 27.8401 31.3354 27.8479 31.3751 27.8479C31.8779 27.8479 32.3119 27.5611 32.5337 27.1456L38.7831 28.5338C38.789 28.6539 38.8122 28.7692 38.849 28.8786L35.1406 31.3519C34.9081 31.1513 34.6107 31.0264 34.2814 31.0264C33.8057 31.0264 33.3921 31.2821 33.1596 31.6609L30.1467 30.7997ZM34.9014 40.0939C34.9014 40.4358 34.6233 40.7139 34.2814 40.7139C33.9394 40.7139 33.6614 40.4358 33.6614 40.0939C33.6614 39.7519 33.9394 39.4739 34.2814 39.4739C34.6233 39.4739 34.9014 39.7519 34.9014 40.0939ZM34.2814 32.9639C33.9394 32.9639 33.6614 32.6858 33.6614 32.3439C33.6614 32.0019 33.9394 31.7239 34.2814 31.7239C34.6233 31.7239 34.9014 32.0019 34.9014 32.3439C34.9014 32.6858 34.6233 32.9639 34.2814 32.9639ZM40.0939 29.0889C39.7519 29.0889 39.4739 28.8108 39.4739 28.4689C39.4739 28.1269 39.7519 27.8489 40.0939 27.8489C40.4358 27.8489 40.7139 28.1269 40.7139 28.4689C40.7139 28.8108 40.4358 29.0889 40.0939 29.0889Z" fill="white"/>
</g>
<defs>
<linearGradient id="paint0_linear_1527_797" x1="0" y1="28" x2="56" y2="28" gradientUnits="userSpaceOnUse">
<stop stop-color="#0F4058"/>
<stop offset="0.465" stop-color="#1F2E7F"/>
<stop offset="1" stop-color="#5A2B95"/>
</linearGradient>
<clipPath id="clip0_1527_797">
<rect width="31" height="31" fill="white" transform="translate(12 12)"/>
</clipPath>
</defs>
</svg>
