<svg width="56" height="56" viewBox="0 0 56 56" fill="none" xmlns="http://www.w3.org/2000/svg">
<rect width="56" height="56" rx="16" fill="url(#paint0_linear_1527_796)"/>
<g clip-path="url(#clip0_1527_796)">
<path d="M38.2196 24.4243C38.5346 24.6334 38.9115 24.7564 39.3169 24.7564C40.4159 24.7564 41.3101 23.8622 41.3101 22.7632C41.3101 21.6642 40.4159 20.77 39.3169 20.77C38.5266 20.77 37.8481 21.236 37.5261 21.9044L35.406 21.3746L38.6687 15.8688C38.873 15.9397 39.0888 15.9864 39.3169 15.9864C40.4159 15.9864 41.3101 15.0922 41.3101 13.9932C41.3101 12.8942 40.4159 12 39.3169 12C38.2179 12 37.3237 12.8942 37.3237 13.9932C37.3237 14.1365 37.3404 14.2754 37.3693 14.4101L28.186 18.428C27.8247 17.9173 27.2322 17.5809 26.5605 17.5809C25.598 17.5809 24.7929 18.2669 24.6076 19.1755H18.9461C18.7608 18.2669 17.9557 17.5809 16.9932 17.5809C15.8942 17.5809 15 18.4751 15 19.5741C15 20.6731 15.8942 21.5673 16.9932 21.5673C17.2252 21.5673 17.4446 21.5198 17.6519 21.4466L19.6647 24.8016L18.2304 25.9967C17.8894 25.7238 17.4629 25.5537 16.9932 25.5537C15.8942 25.5537 15 26.4479 15 27.5469C15 28.6459 15.8942 29.5401 16.9932 29.5401C17.4629 29.5401 17.8893 29.3699 18.2304 29.097L19.6647 30.2922L17.6519 33.6471C17.4446 33.5739 17.2252 33.5264 16.9932 33.5264C15.8942 33.5264 15 34.4207 15 35.5196C15 36.6186 15.8942 37.5128 16.9932 37.5128C17.9557 37.5128 18.7608 36.8269 18.9461 35.9183H24.6076C24.7929 36.8269 25.598 37.5128 26.5605 37.5128C27.2322 37.5128 27.8247 37.1765 28.186 36.6657L37.3693 40.6836C37.3404 40.8183 37.3237 40.9573 37.3237 41.1006C37.3237 42.1995 38.2179 43.0938 39.3169 43.0938C40.4159 43.0938 41.3101 42.1995 41.3101 41.1006C41.3101 40.0016 40.4159 39.1074 39.3169 39.1074C39.0888 39.1074 38.873 39.1541 38.6687 39.2249L35.406 33.7191L37.526 33.1893C37.8481 33.8577 38.5266 34.3237 39.3169 34.3237C40.4159 34.3237 41.3101 33.4295 41.3101 32.3305C41.3101 31.2315 40.4159 30.3373 39.3169 30.3373C38.9115 30.3373 38.5346 30.4604 38.2196 30.6694L35.097 27.5469L38.2196 24.4243ZM39.3169 21.5673C39.9764 21.5673 40.5128 22.1038 40.5128 22.7632C40.5128 23.4227 39.9764 23.9591 39.3169 23.9591C38.6574 23.9591 38.121 23.4227 38.121 22.7632C38.121 22.1038 38.6574 21.5673 39.3169 21.5673ZM37.3323 22.678C37.3311 22.7068 37.3237 22.734 37.3237 22.7632C37.3237 22.8691 37.339 22.9715 37.3551 23.0731L33.5552 24.4979L34.9819 22.0905L37.3323 22.678ZM18.7411 34.5822L21.7768 32.0522L24.8126 34.5822C24.7219 34.7504 24.6469 34.9283 24.6076 35.121H18.9461C18.9068 34.9283 18.8318 34.7504 18.7411 34.5822ZM24.8126 20.5115L21.7768 23.0416L18.7411 20.5115C18.8318 20.3434 18.9068 20.1655 18.9461 19.9728H24.6076C24.6469 20.1655 24.7218 20.3434 24.8126 20.5115ZM31.2851 26.7648L31.0117 26.3035L31.7148 26.0399L31.2851 26.7648ZM31.7148 29.0538L31.0117 28.7903L31.2851 28.329L31.7148 29.0538ZM24.6076 27.1482H22.4809L23.4736 25.4937L24.8125 26.6094C24.7219 26.7776 24.6469 26.9555 24.6076 27.1482ZM24.6076 27.9455C24.6469 28.1382 24.7219 28.3161 24.8125 28.4843L23.4736 29.6L22.4809 27.9455L24.6076 27.9455ZM25.3646 27.5469C25.3646 26.8874 25.901 26.351 26.5605 26.351C27.22 26.351 27.7564 26.8874 27.7564 27.5469C27.7564 28.2063 27.22 28.7428 26.5605 28.7428C25.901 28.7428 25.3646 28.2063 25.3646 27.5469ZM30.8217 27.5469L30.2533 28.5061L28.5223 27.8567C28.5384 27.7551 28.5537 27.6531 28.5537 27.5469C28.5537 27.4406 28.5384 27.3386 28.5223 27.237L30.2533 26.5876L30.8217 27.5469ZM29.9555 24.5213L30.4347 24.0121L31.6392 25.2166L30.5987 25.6066L29.9555 24.5213ZM29.5325 23.8073L28.5179 22.0952L29.8707 23.448C29.8707 23.448 29.5325 23.8073 29.5325 23.8073ZM29.8405 25.8912L28.2435 26.4895C28.2247 26.46 28.2066 26.43 28.1862 26.4012L29.3869 25.1255L29.8405 25.8912ZM28.2435 28.6042L29.8405 29.2025L29.3869 29.9683L28.1862 28.6926C28.2066 28.6638 28.2247 28.6338 28.2435 28.6042ZM29.8707 31.6458L28.5179 32.9986L29.5325 31.2864C29.5325 31.2864 29.8707 31.6458 29.8707 31.6458ZM29.9555 30.5725L30.5987 29.4871L31.6392 29.8772L30.4347 31.0817L29.9555 30.5725ZM32.4125 24.8623L30.9814 23.4312L32.7652 21.5362L34.1747 21.8885C34.1747 21.8885 32.4125 24.8623 32.4125 24.8623ZM30.4173 22.8672L28.2216 20.6715C28.2714 20.5964 28.3119 20.5146 28.3513 20.4329L31.8786 21.3146C31.8786 21.3146 30.4173 22.8672 30.4173 22.8672ZM27.2087 21.4497L28.9638 24.4115L27.604 25.8565C27.2996 25.6677 26.9441 25.5537 26.5605 25.5537C26.0908 25.5537 25.6643 25.7238 25.3232 25.9967L23.889 24.8016L25.9018 21.4466C26.1091 21.5198 26.3285 21.5673 26.5605 21.5673C26.7886 21.5673 27.0044 21.5206 27.2087 21.4497ZM23.2692 24.285L22.3997 23.5605L25.0079 21.3871C25.0079 21.3871 23.2692 24.285 23.2692 24.285ZM22.8538 24.9771L21.7768 26.7722L20.6999 24.9771L21.7768 24.0794L22.8538 24.9771ZM21.7768 28.3216L22.8538 30.1166L21.7768 31.0143L20.6999 30.1166L21.7768 28.3216ZM23.2692 30.8088L25.0079 33.7067L22.3997 31.5332C22.3997 31.5332 23.2692 30.8088 23.2692 30.8088ZM25.9018 33.6471L23.889 30.2922L25.3232 29.097C25.6643 29.3699 26.0908 29.54 26.5605 29.54C26.9441 29.54 27.2996 29.426 27.604 29.2372L28.9638 30.6822L27.2087 33.644C27.0044 33.5731 26.7886 33.5264 26.5605 33.5264C26.3285 33.5264 26.1091 33.5739 25.9018 33.6471ZM28.2216 34.4222L30.4173 32.2266L31.8787 33.7791L28.3514 34.6608C28.3119 34.5791 28.2715 34.4973 28.2216 34.4222ZM30.9814 31.6625L32.4125 30.2314L34.1747 33.2053L32.7652 33.5576C32.7652 33.5576 30.9814 31.6625 30.9814 31.6625ZM32.5749 28.9413L31.7484 27.5469L32.5749 26.1524L33.9696 27.5469L32.5749 28.9413ZM34.5988 21.1729L33.3913 20.8708L37.1349 16.8934L34.5988 21.1729ZM39.3169 12.7973C39.9764 12.7973 40.5128 13.3337 40.5128 13.9932C40.5128 14.6526 39.9764 15.1891 39.3169 15.1891C38.6574 15.1891 38.121 14.6526 38.121 13.9932C38.121 13.3337 38.6574 12.7973 39.3169 12.7973ZM37.6899 15.14L32.5048 20.6493L28.5451 19.6594C28.5463 19.6306 28.5537 19.6033 28.5537 19.5741C28.5537 19.4308 28.537 19.2919 28.5081 19.1572C28.5081 19.1572 37.6899 15.14 37.6899 15.14ZM26.5605 18.3782C27.22 18.3782 27.7564 18.9146 27.7564 19.5741C27.7564 20.2336 27.22 20.77 26.5605 20.77C25.901 20.77 25.3646 20.2336 25.3646 19.5741C25.3646 18.9146 25.901 18.3782 26.5605 18.3782ZM15.7973 19.5741C15.7973 18.9146 16.3337 18.3782 16.9932 18.3782C17.6526 18.3782 18.1891 18.9146 18.1891 19.5741C18.1891 20.2336 17.6526 20.77 16.9932 20.77C16.3337 20.77 15.7973 20.2336 15.7973 19.5741ZM18.5457 21.3871L21.154 23.5605L20.2845 24.285C20.2845 24.285 18.5457 21.387 18.5457 21.3871ZM20.0801 25.4937L21.0728 27.1482H18.9461C18.9068 26.9555 18.8318 26.7776 18.7412 26.6094C18.7412 26.6094 20.0801 25.4937 20.0801 25.4937ZM16.9932 28.7428C16.3337 28.7428 15.7973 28.2063 15.7973 27.5469C15.7973 26.8874 16.3337 26.351 16.9932 26.351C17.6526 26.351 18.1891 26.8874 18.1891 27.5469C18.1891 28.2063 17.6526 28.7428 16.9932 28.7428ZM18.7412 28.4843C18.8318 28.3161 18.9068 28.1382 18.9461 27.9455H21.0728L20.0801 29.6C20.0801 29.6 18.7412 28.4843 18.7412 28.4843ZM20.2845 30.8088L21.154 31.5332L18.5457 33.7067L20.2845 30.8088ZM16.9932 36.7155C16.3337 36.7155 15.7973 36.1791 15.7973 35.5196C15.7973 34.8602 16.3337 34.3237 16.9932 34.3237C17.6526 34.3237 18.1891 34.8602 18.1891 35.5196C18.1891 36.1791 17.6526 36.7155 16.9932 36.7155ZM26.5605 36.7155C25.901 36.7155 25.3646 36.1791 25.3646 35.5196C25.3646 34.8602 25.901 34.3237 26.5605 34.3237C27.22 34.3237 27.7564 34.8602 27.7564 35.5196C27.7564 36.1791 27.22 36.7155 26.5605 36.7155ZM28.5451 35.4344L32.5048 34.4444L37.6899 39.9537L28.5081 35.9366C28.537 35.8019 28.5537 35.6629 28.5537 35.5196C28.5537 35.4904 28.5463 35.4632 28.5451 35.4344ZM40.5128 41.1006C40.5128 41.76 39.9764 42.2965 39.3169 42.2965C38.6574 42.2965 38.121 41.76 38.121 41.1006C38.121 40.4411 38.6574 39.9046 39.3169 39.9046C39.9764 39.9046 40.5128 40.4411 40.5128 41.1006ZM37.1349 38.2003L33.3912 34.2229L34.5988 33.9208L37.1349 38.2003ZM34.9819 33.0032L33.5551 30.5958L37.355 32.0206C37.339 32.1222 37.3237 32.2246 37.3237 32.3305C37.3237 32.3597 37.3311 32.387 37.3323 32.4158L34.9819 33.0032ZM40.5128 32.3305C40.5128 32.99 39.9764 33.5264 39.3169 33.5264C38.6574 33.5264 38.121 32.99 38.121 32.3305C38.121 31.6711 38.6574 31.1346 39.3169 31.1346C39.9764 31.1346 40.5128 31.6711 40.5128 32.3305ZM37.6558 31.2331C37.6474 31.2459 37.642 31.2607 37.6338 31.2736L33.0784 29.5654L34.5332 28.1106L37.6558 31.2331ZM33.0784 25.5284L37.6338 23.8202C37.642 23.833 37.6474 23.8478 37.6558 23.8606L34.5332 26.9832L33.0784 25.5284Z" fill="white"/>
</g>
<defs>
<linearGradient id="paint0_linear_1527_796" x1="0" y1="28" x2="56" y2="28" gradientUnits="userSpaceOnUse">
<stop stop-color="#0F4058"/>
<stop offset="0.465" stop-color="#1F2E7F"/>
<stop offset="1" stop-color="#5A2B95"/>
</linearGradient>
<clipPath id="clip0_1527_796">
<rect width="31" height="31" fill="white" transform="translate(12 12)"/>
</clipPath>
</defs>
</svg>
