<svg width="56" height="56" viewBox="0 0 56 56" fill="none" xmlns="http://www.w3.org/2000/svg">
<rect width="56" height="56" rx="16" fill="url(#paint0_linear_1528_809)"/>
<g clip-path="url(#clip0_1528_809)">
<path d="M41.2124 24.2218C41.2124 22.7625 40.6641 21.372 39.6686 20.3061C38.9211 19.5059 37.9742 18.9445 36.9343 18.6722C36.9486 18.5165 36.9568 18.3594 36.9568 18.2013C36.9568 15.3333 34.6236 13 31.7556 13C29.9978 13 28.442 13.8774 27.5 15.2163C26.558 13.8774 25.0022 13 23.2444 13C20.3764 13 18.0432 15.3333 18.0432 18.2012C18.0432 18.3594 18.0514 18.5164 18.0657 18.672C17.0259 18.9444 16.0791 19.5057 15.3315 20.306C14.3358 21.3719 13.7876 22.7625 13.7876 24.2217C13.7876 25.4387 14.1688 26.5681 14.8176 27.4976C14.149 28.4546 13.7876 29.5934 13.7876 30.7782C13.7876 33.4375 15.6063 35.6798 18.0652 36.3271C18.0511 36.4835 18.0431 36.6407 18.0431 36.7987C18.0431 39.6667 20.3764 41.9999 23.2443 41.9999C25.0022 41.9999 26.558 41.1226 27.4999 39.7837C28.442 41.1226 29.9978 42 31.7556 42C34.6236 42 36.9568 39.6667 36.9568 36.7988C36.9568 36.6409 36.9489 36.4836 36.9347 36.3272C39.3936 35.6798 41.2123 33.4376 41.2123 30.7782C41.2123 29.5934 40.8508 28.4546 40.1823 27.4977C40.8312 26.5682 41.2124 25.4387 41.2124 24.2218ZM26.5543 32.4327V36.7988C26.5543 38.6238 25.0694 40.1087 23.2444 40.1087C21.4193 40.1087 19.9345 38.6238 19.9345 36.7988C19.9345 36.6985 19.9395 36.5987 19.9484 36.4995C21.4101 36.3908 22.7874 35.7227 23.7782 34.6287L22.3764 33.359C21.6482 34.163 20.6089 34.6242 19.525 34.6242C17.4042 34.6242 15.6789 32.8989 15.6789 30.7782C15.6789 30.1047 15.8531 29.4533 16.1793 28.8797C17.1217 29.5585 18.2774 29.959 19.525 29.959V28.0677C17.4042 28.0677 15.6789 26.3424 15.6789 24.2218C15.6789 22.4433 16.9093 20.9182 18.5805 20.494C19.1555 21.6589 20.1576 22.5997 21.4178 23.0724L22.0821 21.3016C20.7976 20.8197 19.9345 19.5738 19.9345 18.2013C19.9345 16.3761 21.4194 14.8913 23.2444 14.8913C25.0694 14.8913 26.5543 16.3762 26.5543 18.2013V22.5673V23.882H25.7733V22.5673H23.882V23.882H22.5673V25.7733H23.882V26.5544H22.5673V28.4457H23.882V29.2267H22.5673V31.118H23.882V32.4327H25.7733V31.118H26.5543V32.4327ZM25.7734 29.2267V25.7734H29.2267V29.2267H25.7734ZM38.8207 28.8797C39.1469 29.4534 39.3211 30.1047 39.3211 30.7782C39.3211 32.899 37.5957 34.6242 35.4751 34.6242C34.3911 34.6242 33.3518 34.1631 32.6236 33.359L31.2219 34.6288C32.2127 35.7227 33.59 36.3907 35.0517 36.4996C35.0606 36.5988 35.0656 36.6986 35.0656 36.7989C35.0656 38.624 33.5807 40.1088 31.7556 40.1088C29.9306 40.1088 28.4457 38.624 28.4457 36.7989V32.4328V31.1181H29.2267V32.4328H31.118V31.1181H32.4327V29.2268H31.118V28.4458H32.4327V26.5545H31.118V25.7734H32.4327V23.8821H31.118V22.5675H29.2267V23.8821H28.4457V22.5675V18.2012C28.4457 16.3761 29.9306 14.8913 31.7556 14.8913C33.5806 14.8913 35.0655 16.3761 35.0655 18.2012C35.0655 19.5737 34.2024 20.8196 32.9179 21.3015L33.5822 23.0723C34.8425 22.5996 35.8445 21.6588 36.4195 20.4939C38.0908 20.9182 39.3211 22.4432 39.3211 24.2217C39.3211 26.3424 37.5958 28.0677 35.4751 28.0677V29.9589C36.7226 29.959 37.8783 29.5585 38.8207 28.8797Z" fill="white"/>
</g>
<defs>
<linearGradient id="paint0_linear_1528_809" x1="0" y1="28" x2="56" y2="28" gradientUnits="userSpaceOnUse">
<stop stop-color="#0F4058"/>
<stop offset="0.465" stop-color="#1F2E7F"/>
<stop offset="1" stop-color="#5A2B95"/>
</linearGradient>
<clipPath id="clip0_1528_809">
<rect width="29" height="29" fill="white" transform="translate(13 13)"/>
</clipPath>
</defs>
</svg>
