<svg width="56" height="56" viewBox="0 0 56 56" fill="none" xmlns="http://www.w3.org/2000/svg">
<rect width="56" height="56" rx="16" fill="url(#paint0_linear_1528_803)"/>
<path d="M27.4435 13C19.5455 13 20.0387 16.425 20.0387 16.425L20.0474 19.9734H27.5843V21.0388H17.0539C17.0539 21.0388 12 20.4656 12 28.4346C12 36.4038 16.4112 36.1212 16.4112 36.1212H19.0437V32.4231C19.0437 32.4231 18.9018 28.012 23.3845 28.012H30.8597C30.8597 28.012 35.0595 28.0798 35.0595 23.953V17.1295C35.0595 17.1295 35.6974 13 27.4435 13ZM23.2876 15.3862C23.4657 15.3861 23.6421 15.421 23.8067 15.4891C23.9713 15.5572 24.1208 15.6571 24.2467 15.783C24.3727 15.9089 24.4726 16.0585 24.5406 16.2231C24.6087 16.3876 24.6437 16.564 24.6435 16.7421C24.6437 16.9202 24.6087 17.0966 24.5406 17.2612C24.4726 17.4258 24.3727 17.5753 24.2467 17.7012C24.1208 17.8272 23.9713 17.927 23.8067 17.9951C23.6421 18.0632 23.4657 18.0982 23.2876 18.098C23.1095 18.0982 22.9332 18.0632 22.7686 17.9951C22.604 17.927 22.4545 17.8272 22.3285 17.7012C22.2026 17.5753 22.1027 17.4258 22.0346 17.2612C21.9666 17.0966 21.9316 16.9202 21.9318 16.7421C21.9316 16.564 21.9666 16.3876 22.0346 16.2231C22.1027 16.0585 22.2026 15.9089 22.3285 15.783C22.4545 15.6571 22.604 15.5572 22.7686 15.4891C22.9332 15.421 23.1095 15.3861 23.2876 15.3862Z" fill="white"/>
<path d="M27.6676 43.9496C35.5656 43.9496 35.0725 40.5246 35.0725 40.5246L35.0637 36.9762H27.5267V35.9109H38.0571C38.0571 35.9109 43.111 36.4841 43.111 28.5149C43.111 20.5458 38.6998 20.8284 38.6998 20.8284H36.0673V24.5263C36.0673 24.5263 36.2092 28.9375 31.7265 28.9375H24.2513C24.2513 28.9375 20.0515 28.8696 20.0515 32.9966V39.8202C20.0515 39.8202 19.4137 43.9496 27.6675 43.9496H27.6676ZM31.8235 41.5636C31.6454 41.5637 31.469 41.5288 31.3044 41.4607C31.1398 41.3926 30.9903 41.2927 30.8644 41.1668C30.7384 41.0409 30.6386 40.8913 30.5705 40.7268C30.5024 40.5622 30.4674 40.3858 30.4676 40.2077C30.4674 40.0296 30.5024 39.8532 30.5704 39.6886C30.6385 39.524 30.7384 39.3745 30.8643 39.2485C30.9903 39.1226 31.1398 39.0227 31.3044 38.9546C31.469 38.8865 31.6454 38.8515 31.8235 38.8517C32.0016 38.8515 32.178 38.8865 32.3425 38.9546C32.5071 39.0227 32.6566 39.1225 32.7826 39.2485C32.9085 39.3744 33.0084 39.5239 33.0765 39.6885C33.1445 39.8531 33.1795 40.0295 33.1793 40.2076C33.1795 40.3857 33.1445 40.5621 33.0765 40.7266C33.0084 40.8912 32.9085 41.0407 32.7826 41.1667C32.6566 41.2926 32.5071 41.3925 32.3425 41.4606C32.178 41.5287 32.0016 41.5636 31.8235 41.5635V41.5636Z" fill="white"/>
<defs>
<linearGradient id="paint0_linear_1528_803" x1="0" y1="28" x2="56" y2="28" gradientUnits="userSpaceOnUse">
<stop stop-color="#0F4058"/>
<stop offset="0.465" stop-color="#1F2E7F"/>
<stop offset="1" stop-color="#5A2B95"/>
</linearGradient>
</defs>
</svg>
