<svg width="56" height="56" viewBox="0 0 56 56" fill="none" xmlns="http://www.w3.org/2000/svg">
<path d="M42.9688 26.6137L29.3854 13.031C28.6036 12.2488 27.3349 12.2488 26.5521 13.031L23.7315 15.8517L27.3096 19.4298C28.1411 19.1489 29.0946 19.3374 29.7574 20.0002C30.4234 20.6672 30.6106 21.6289 30.3228 22.4631L33.7711 25.9115C34.6054 25.6241 35.568 25.8101 36.2344 26.4775C37.1656 27.4084 37.1656 28.9172 36.2344 29.8487C35.3029 30.7803 33.7941 30.7803 32.8621 29.8487C32.1616 29.1474 31.9886 28.1187 32.3432 27.2557L29.1273 24.0399L29.1269 32.5027C29.3601 32.618 29.573 32.7702 29.7574 32.9536C30.6887 33.8845 30.6887 35.3934 29.7574 36.3256C28.8259 37.2568 27.3164 37.2568 26.3862 36.3256C25.455 35.3934 25.455 33.8846 26.3862 32.9537C26.6094 32.7304 26.8746 32.5536 27.1666 32.4334V23.8917C26.8742 23.7724 26.6088 23.5955 26.3862 23.3715C25.6807 22.6669 25.511 21.6316 25.8725 20.7652L22.3453 17.2376L13.0314 26.5509C12.2488 27.3339 12.2488 28.6028 13.0314 29.3852L26.6151 42.9681C27.3971 43.7505 28.6656 43.7505 29.4486 42.9681L42.9687 29.4482C43.7511 28.6656 43.7511 27.396 42.9687 26.6137" fill="#EF4444"/>
</svg>
