<svg width="56" height="56" viewBox="0 0 56 56" fill="none" xmlns="http://www.w3.org/2000/svg">
<path d="M28 30.7425C29.5149 30.7425 30.7429 29.5145 30.7429 27.9997C30.7429 26.4848 29.5149 25.2568 28 25.2568C26.4852 25.2568 25.2572 26.4848 25.2572 27.9997C25.2572 29.5145 26.4852 30.7425 28 30.7425Z" fill="#61DAFB"/>
<path fill-rule="evenodd" clip-rule="evenodd" d="M15.109 26.5543C14.4879 27.115 14.2823 27.605 14.2823 27.9993C14.2823 28.3937 14.4879 28.8837 15.109 29.4444C15.73 30.005 16.6848 30.5557 17.9497 31.0387C20.4727 32.002 24.0257 32.6188 28 32.6188C31.9742 32.6188 35.5272 32.002 38.0502 31.0387C39.3151 30.5557 40.2699 30.005 40.8909 29.4444C41.512 28.8837 41.7176 28.3937 41.7176 27.9993C41.7176 27.605 41.512 27.115 40.8909 26.5543C40.2699 25.9937 39.3151 25.443 38.0502 24.96C35.5272 23.9967 31.9742 23.3799 28 23.3799C24.0257 23.3799 20.4727 23.9967 17.9497 24.96C16.6848 25.443 15.73 25.9937 15.109 26.5543ZM17.2363 23.0916C20.0401 22.021 23.8459 21.3799 28 21.3799C32.154 21.3799 35.9598 22.021 38.7636 23.0916C40.162 23.6255 41.3626 24.2857 42.2311 25.0697C43.0994 25.8536 43.7176 26.8419 43.7176 27.9993C43.7176 29.1568 43.0994 30.1451 42.2311 30.929C41.3626 31.713 40.162 32.3732 38.7636 32.9071C35.9598 33.9776 32.154 34.6188 28 34.6188C23.8459 34.6188 20.0401 33.9776 17.2363 32.9071C15.8379 32.3732 14.6373 31.713 13.7689 30.929C12.9005 30.1451 12.2823 29.1568 12.2823 27.9993C12.2823 26.8419 12.9005 25.8536 13.7689 25.0697C14.6373 24.2857 15.8379 23.6255 17.2363 23.0916Z" fill="#61DAFB"/>
<path fill-rule="evenodd" clip-rule="evenodd" d="M22.806 16.1133C22.0098 15.8557 21.4827 15.9227 21.1412 16.1199C20.7997 16.3171 20.4781 16.7401 20.303 17.5583C20.1281 18.3765 20.1285 19.4787 20.3427 20.8156C20.77 23.4823 22.0123 26.8676 23.9994 30.3094C25.9865 33.7512 28.2972 36.5198 30.3929 38.2231C31.4437 39.0771 32.398 39.6286 33.194 39.8861C33.9901 40.1437 34.5173 40.0767 34.8588 39.8795C35.2003 39.6823 35.5219 39.2593 35.6969 38.4411C35.8719 37.6229 35.8714 36.5207 35.6572 35.1838C35.23 32.5172 33.9877 29.1318 32.0005 25.69C30.0134 22.2482 27.7028 19.4796 25.607 17.7763C24.5563 16.9223 23.602 16.3708 22.806 16.1133ZM26.8684 16.2242C29.1974 18.1171 31.6555 21.0924 33.7326 24.69C35.8096 28.2875 37.1573 31.904 37.632 34.8674C37.8688 36.3454 37.8974 37.7153 37.6527 38.8594C37.408 40.0034 36.8611 41.0328 35.8588 41.6116C34.8564 42.1903 33.6915 42.1491 32.5784 41.789C31.4652 41.4289 30.2932 40.7193 29.1315 39.7752C26.8026 37.8823 24.3444 34.907 22.2674 31.3094C20.1903 27.7119 18.8427 24.0954 18.3679 21.132C18.1311 19.654 18.1026 18.2841 18.3473 17.14C18.592 15.996 19.1388 14.9666 20.1412 14.3879C21.1435 13.8091 22.3085 13.8503 23.4216 14.2104C24.5348 14.5705 25.7068 15.2801 26.8684 16.2242Z" fill="#61DAFB"/>
<path fill-rule="evenodd" clip-rule="evenodd" d="M35.6969 17.558C35.5219 16.7398 35.2003 16.3168 34.8588 16.1196C34.5173 15.9224 33.9902 15.8554 33.194 16.113C32.398 16.3705 31.4437 16.922 30.393 17.776C28.2972 19.4793 25.9866 22.2479 23.9994 25.6897C22.0123 29.1315 20.77 32.5168 20.3428 35.1835C20.1286 36.5204 20.1281 37.6226 20.3031 38.4408C20.4781 39.259 20.7997 39.682 21.1412 39.8792C21.4827 40.0764 22.0098 40.1434 22.806 39.8858C23.602 39.6283 24.5563 39.0768 25.607 38.2228C27.7028 36.5195 30.0135 33.7509 32.0006 30.3091C33.9877 26.8673 35.23 23.4819 35.6573 20.8153C35.8715 19.4784 35.8719 18.3761 35.6969 17.558ZM37.6321 21.1317C37.1573 24.0951 35.8097 27.7116 33.7326 31.3091C31.6556 34.9067 29.1974 37.882 26.8685 39.7749C25.7068 40.719 24.5348 41.4286 23.4216 41.7887C22.3085 42.1488 21.1436 42.19 20.1412 41.6112C19.1388 41.0325 18.592 40.0031 18.3473 38.8591C18.1026 37.7149 18.1311 36.3451 18.3679 34.8671C18.8427 31.9037 20.1904 28.2872 22.2674 24.6897C24.3444 21.0921 26.8026 18.1168 29.1316 16.2239C30.2932 15.2798 31.4652 14.5702 32.5784 14.2101C33.6915 13.85 34.8565 13.8088 35.8588 14.3875C36.8612 14.9663 37.408 15.9957 37.6527 17.1397C37.8974 18.2838 37.8689 19.6536 37.6321 21.1317Z" fill="#61DAFB"/>
</svg>
