<svg width="56" height="56" viewBox="0 0 56 56" fill="none" xmlns="http://www.w3.org/2000/svg">
<path d="M23.7756 19.1308C19.71 18.3903 16.4954 19.1655 15.2142 21.3843C14.2582 23.04 14.5311 25.2356 15.8766 27.5825C15.9038 27.63 15.9401 27.6717 15.9834 27.7052C16.0268 27.7387 16.0763 27.7633 16.1292 27.7777C16.1821 27.792 16.2372 27.7958 16.2916 27.7888C16.3459 27.7818 16.3983 27.7642 16.4458 27.7369C16.5418 27.6818 16.612 27.5909 16.6409 27.4842C16.6699 27.3774 16.6553 27.2635 16.6003 27.1675C15.3882 25.0537 15.1519 23.1589 15.9364 21.8012C17.0005 19.9579 19.8675 19.2665 23.6259 19.9512C23.6939 19.9646 23.7641 19.9609 23.8302 19.9404C23.8964 19.9199 23.9564 19.8833 24.0049 19.8338C24.0533 19.7843 24.0887 19.7235 24.1078 19.657C24.1269 19.5904 24.1291 19.5201 24.1142 19.4525C24.0963 19.3711 24.0544 19.2971 23.994 19.2397C23.9336 19.1824 23.8574 19.1445 23.7752 19.1309L23.7756 19.1308ZM17.9908 30.4348C19.6346 32.2414 21.7703 33.9359 24.2061 35.3423C30.1035 38.7472 36.3819 39.6573 39.476 37.5474C39.5651 37.4843 39.6258 37.3886 39.6452 37.2811C39.6645 37.1736 39.6409 37.0627 39.5793 36.9725C39.5178 36.8822 39.4233 36.8197 39.3161 36.7983C39.209 36.777 39.0978 36.7986 39.0064 36.8584C36.237 38.7468 30.273 37.8822 24.6231 34.6201C22.2599 33.2556 20.1919 31.615 18.6076 29.8738C18.5525 29.8113 18.48 29.7667 18.3993 29.7458C18.3187 29.7249 18.2336 29.7286 18.1551 29.7564C18.0898 29.7796 18.0313 29.8187 17.985 29.8701C17.9386 29.9216 17.9058 29.9838 17.8894 30.0511C17.8731 30.1185 17.8739 30.1888 17.8916 30.2558C17.9092 30.3228 17.9433 30.3843 17.9908 30.4348V30.4348Z" fill="#2DD0ED"/>
<path d="M38.4892 29.9281C41.1512 26.7833 42.0808 23.6202 40.8024 21.4058C39.8617 19.7764 37.8728 18.9162 35.2299 18.8819C35.1193 18.8805 35.0127 18.923 34.9335 19.0001C34.8543 19.0772 34.8089 19.1826 34.8073 19.2932C34.8061 19.3757 34.8295 19.4567 34.8744 19.5259C34.9193 19.5951 34.9837 19.6494 35.0596 19.6818C35.1099 19.7035 35.164 19.715 35.2188 19.7157C37.5958 19.7465 39.3095 20.4877 40.0804 21.8228C41.142 23.6621 40.3133 26.4828 37.8528 29.3895C37.8162 29.4311 37.7882 29.4796 37.7705 29.5321C37.7529 29.5846 37.7459 29.6402 37.7499 29.6955C37.754 29.7507 37.7691 29.8046 37.7943 29.854C37.8194 29.9034 37.8542 29.9473 37.8965 29.983C37.9389 30.0188 37.9879 30.0457 38.0407 30.0623C38.0936 30.0789 38.1492 30.0848 38.2044 30.0797C38.2595 30.0746 38.3131 30.0585 38.362 30.0325C38.4109 30.0065 38.4541 29.971 38.4892 29.9281V29.9281ZM31.6478 19.2701C29.2407 19.7859 26.6789 20.7942 24.2187 22.2146C18.1303 25.7296 14.1588 30.9123 14.7106 34.6708C14.7175 34.7258 14.7353 34.779 14.7629 34.8271C14.7906 34.8753 14.8277 34.9174 14.8718 34.951C14.916 34.9846 14.9665 35.0091 15.0202 35.0229C15.074 35.0368 15.13 35.0398 15.1849 35.0317C15.2399 35.0236 15.2926 35.0046 15.3401 34.9759C15.3876 34.9472 15.4289 34.9092 15.4615 34.8643C15.4942 34.8194 15.5175 34.7684 15.5302 34.7143C15.5429 34.6603 15.5446 34.6042 15.5353 34.5495C15.0458 31.2128 18.8101 26.2997 24.6353 22.9367C27.022 21.5587 29.5029 20.5827 31.8226 20.0852C31.9274 20.0588 32.0179 19.9928 32.075 19.901C32.1321 19.8093 32.1514 19.6989 32.1287 19.5932C32.1061 19.4875 32.0432 19.3948 31.9535 19.3345C31.8638 19.2742 31.7542 19.2511 31.6478 19.2701Z" fill="#2DD0ED"/>
<path d="M21.7846 37.2763C23.177 41.1625 25.4537 43.5556 28.0144 43.5556C29.8816 43.5556 31.6092 42.2828 32.9565 40.0417C32.9867 39.9948 33.0072 39.9422 33.0168 39.8872C33.0263 39.8322 33.0247 39.7759 33.0121 39.7215C32.9963 39.6534 32.9636 39.5903 32.9171 39.5381C32.8705 39.4859 32.8116 39.4463 32.7457 39.4229C32.6798 39.3995 32.609 39.393 32.54 39.4041C32.4709 39.4152 32.4058 39.4435 32.3506 39.4864C32.3064 39.5206 32.2697 39.5633 32.2424 39.612C31.0314 41.6261 29.544 42.7221 28.0144 42.7221C25.8877 42.7221 23.8565 40.5875 22.5698 36.9951C22.5522 36.9425 22.5242 36.8939 22.4876 36.8522C22.451 36.8105 22.4064 36.7765 22.3565 36.7522C22.3066 36.728 22.2523 36.714 22.1969 36.711C22.1415 36.7081 22.0861 36.7162 22.0338 36.735C21.9816 36.7537 21.9337 36.7827 21.8928 36.8202C21.8519 36.8577 21.8189 36.903 21.7957 36.9534C21.7725 37.0038 21.7596 37.0583 21.7577 37.1137C21.7559 37.1692 21.7652 37.2245 21.785 37.2763H21.7846ZM34.4986 36.5158C35.2191 34.2138 35.6058 31.5573 35.6058 28.7892C35.6058 21.8827 33.1888 15.9287 29.7455 14.3998C29.6449 14.3575 29.5317 14.3563 29.4302 14.3965C29.3287 14.4367 29.247 14.5152 29.2027 14.6149C29.1584 14.7147 29.155 14.8279 29.1932 14.9302C29.2315 15.0324 29.3083 15.1156 29.4071 15.1619C32.4781 16.5256 34.7723 22.176 34.7723 28.7892C34.7723 31.4743 34.3973 34.047 33.703 36.267C33.6851 36.3196 33.6778 36.3753 33.6818 36.4308C33.6857 36.4863 33.7007 36.5404 33.7259 36.59C33.7639 36.6647 33.8234 36.7262 33.8968 36.7665C33.9703 36.8069 34.0541 36.8242 34.1375 36.8162C34.2209 36.8082 34.3 36.7753 34.3644 36.7217C34.4288 36.6681 34.4756 36.5964 34.4986 36.5158V36.5158ZM42.3502 36.1077C42.3519 35.8446 42.3015 35.5838 42.202 35.3402C42.1024 35.0967 41.9557 34.8752 41.7703 34.6886C41.5848 34.5019 41.3643 34.3538 41.1214 34.2527C40.8785 34.1517 40.618 34.0996 40.3549 34.0996C40.0918 34.0997 39.8313 34.1517 39.5883 34.2528C39.3454 34.3539 39.1249 34.502 38.9395 34.6886C38.754 34.8753 38.6073 35.0967 38.5078 35.3403C38.4083 35.5838 38.3579 35.8447 38.3596 36.1078C38.363 36.6347 38.5747 37.139 38.9486 37.5104C39.3224 37.8818 39.828 38.0903 40.355 38.0903C40.8819 38.0903 41.3875 37.8818 41.7613 37.5104C42.1351 37.1389 42.3468 36.6347 42.3502 36.1077ZM41.5163 36.1077C41.5163 36.4157 41.3939 36.7111 41.1761 36.9289C40.9583 37.1467 40.6629 37.2691 40.3549 37.2691C40.1252 37.2691 39.9007 37.201 39.7097 37.0734C39.5187 36.9458 39.3699 36.7644 39.282 36.5522C39.1941 36.34 39.1711 36.1065 39.2159 35.8812C39.2607 35.6559 39.3713 35.449 39.5337 35.2866C39.6962 35.1241 39.9031 35.0135 40.1284 34.9687C40.3536 34.9239 40.5871 34.9469 40.7993 35.0348C41.0116 35.1227 41.1929 35.2715 41.3206 35.4625C41.4482 35.6535 41.5163 35.878 41.5163 36.1077V36.1077ZM15.6451 38.103C15.9071 38.103 16.1666 38.0515 16.4087 37.9512C16.6508 37.8509 16.8708 37.704 17.0561 37.5187C17.2414 37.3334 17.3883 37.1134 17.4886 36.8713C17.5889 36.6292 17.6404 36.3697 17.6404 36.1077C17.6404 35.8457 17.5888 35.5862 17.4886 35.3441C17.3883 35.102 17.2413 34.882 17.056 34.6967C16.8707 34.5114 16.6507 34.3645 16.4086 34.2642C16.1665 34.1639 15.9071 34.1123 15.645 34.1124C15.383 34.1124 15.1235 34.164 14.8814 34.2642C14.6394 34.3645 14.4194 34.5115 14.2341 34.6968C14.0488 34.8821 13.9019 35.102 13.8016 35.3441C13.7014 35.5862 13.6498 35.8457 13.6498 36.1077C13.6498 36.3697 13.7014 36.6292 13.8016 36.8713C13.9019 37.1134 14.0489 37.3334 14.2341 37.5186C14.4194 37.7039 14.6394 37.8509 14.8815 37.9512C15.1236 38.0514 15.3831 38.103 15.6451 38.103V38.103ZM15.6451 37.2691C15.337 37.2691 15.0415 37.1468 14.8237 36.9289C14.6058 36.711 14.4834 36.4156 14.4834 36.1075C14.4834 35.7993 14.6058 35.5039 14.8237 35.286C15.0415 35.0681 15.337 34.9458 15.6451 34.9458C15.9532 34.9458 16.2487 35.0681 16.4665 35.286C16.6844 35.5039 16.8068 35.7993 16.8068 36.1075C16.8068 36.4156 16.6844 36.711 16.4665 36.9289C16.2487 37.1468 15.9532 37.2691 15.6451 37.2691V37.2691Z" fill="#2DD0ED"/>
<path d="M28.0144 16.435C28.4091 16.435 28.7949 16.318 29.123 16.0987C29.4511 15.8795 29.7069 15.5678 29.8578 15.2032C29.9833 14.9 30.0321 14.5706 29.9999 14.2441C29.9677 13.9176 29.8555 13.604 29.6732 13.3312C29.491 13.0584 29.2442 12.8348 28.9549 12.6801C28.6655 12.5254 28.3425 12.4444 28.0144 12.4443C27.6198 12.4443 27.2339 12.5612 26.9058 12.7805C26.5776 12.9997 26.3218 13.3113 26.1708 13.676C26.0198 14.0406 25.9803 14.4418 26.0573 14.8289C26.1343 15.2159 26.3244 15.5715 26.6035 15.8505C26.7888 16.0358 27.0087 16.1827 27.2508 16.283C27.4929 16.3833 27.7524 16.4349 28.0144 16.4349V16.435ZM28.0144 15.601C27.7847 15.601 27.5602 15.5329 27.3692 15.4053C27.1782 15.2776 27.0293 15.0963 26.9414 14.8841C26.883 14.7432 26.8529 14.5921 26.8529 14.4396C26.8529 14.2871 26.883 14.136 26.9414 13.9951C26.9997 13.8542 27.0853 13.7262 27.1931 13.6183C27.3009 13.5105 27.429 13.425 27.5699 13.3666C27.7286 13.3009 27.8999 13.2712 28.0714 13.2796C28.243 13.288 28.4105 13.3344 28.562 13.4154C28.7135 13.4963 28.8451 13.6099 28.9474 13.7479C29.0497 13.8858 29.1202 14.0447 29.1537 14.2132C29.1872 14.3817 29.1829 14.5555 29.1412 14.7221C29.0995 14.8887 29.0213 15.044 28.9123 15.1767C28.8034 15.3095 28.6663 15.4165 28.5111 15.4899C28.3558 15.5633 28.1862 15.6014 28.0144 15.6014V15.601ZM28.3192 30.2006C27.9449 30.2814 27.5538 30.2102 27.2319 30.0028C26.9919 29.848 26.8031 29.6256 26.6895 29.3636C26.5758 29.1015 26.5425 28.8117 26.5936 28.5307C26.6447 28.2497 26.778 27.9902 26.9767 27.7849C27.1753 27.5797 27.4304 27.438 27.7095 27.3778C28.0813 27.3035 28.4673 27.3784 28.7844 27.5862C29.1014 27.7941 29.324 28.1183 29.4041 28.4888C29.4841 28.8594 29.4151 29.2465 29.2121 29.5667C29.0092 29.8869 28.6885 30.1144 28.3192 30.2002V30.2006Z" fill="#2DD0ED"/>
</svg>
