<svg width="56" height="56" viewBox="0 0 56 56" fill="none" xmlns="http://www.w3.org/2000/svg">
<path d="M27.8879 12.5254C19.99 12.5254 20.4831 15.9504 20.4831 15.9504L20.4919 19.4988H28.0288V20.5642H17.4984C17.4984 20.5642 12.4445 19.991 12.4445 27.96C12.4445 35.9292 16.8556 35.6465 16.8556 35.6465H19.4882V31.9485C19.4882 31.9485 19.3463 27.5374 23.8289 27.5374H31.3042C31.3042 27.5374 35.504 27.6052 35.504 23.4784V16.6549C35.504 16.6549 36.1418 12.5254 27.8879 12.5254ZM23.7321 14.9116C23.9102 14.9115 24.0866 14.9464 24.2512 15.0145C24.4157 15.0826 24.5653 15.1825 24.6912 15.3084C24.8171 15.4343 24.917 15.5839 24.9851 15.7484C25.0532 15.913 25.0881 16.0894 25.088 16.2675C25.0881 16.4456 25.0532 16.622 24.9851 16.7866C24.917 16.9511 24.8171 17.1007 24.6912 17.2266C24.5653 17.3526 24.4157 17.4524 24.2512 17.5205C24.0866 17.5886 23.9102 17.6235 23.7321 17.6234C23.554 17.6235 23.3776 17.5886 23.213 17.5205C23.0485 17.4524 22.8989 17.3526 22.773 17.2266C22.6471 17.1007 22.5472 16.9511 22.4791 16.7866C22.411 16.622 22.3761 16.4456 22.3762 16.2675C22.3761 16.0894 22.411 15.913 22.4791 15.7484C22.5472 15.5839 22.6471 15.4343 22.773 15.3084C22.8989 15.1825 23.0485 15.0826 23.213 15.0145C23.3776 14.9464 23.554 14.9115 23.7321 14.9116V14.9116Z" fill="#0891B2"/>
<path d="M28.1122 43.475C36.0102 43.475 35.517 40.0499 35.517 40.0499L35.5083 36.5016H27.9713V35.4363H38.5017C38.5017 35.4363 43.5556 36.0095 43.5556 28.0403C43.5556 20.0712 39.1444 20.3538 39.1444 20.3538H36.5118V24.0517C36.5118 24.0517 36.6538 28.4629 32.1711 28.4629H24.6959C24.6959 28.4629 20.496 28.395 20.496 32.522V39.3456C20.496 39.3456 19.8583 43.475 28.1121 43.475H28.1122ZM32.2681 41.089C32.0899 41.0891 31.9136 41.0542 31.749 40.9861C31.5844 40.918 31.4349 40.8181 31.3089 40.6922C31.183 40.5663 31.0831 40.4167 31.0151 40.2522C30.947 40.0876 30.912 39.9112 30.9122 39.7331C30.912 39.555 30.9469 39.3786 31.015 39.214C31.0831 39.0494 31.183 38.8999 31.3089 38.7739C31.4348 38.648 31.5844 38.5481 31.749 38.48C31.9135 38.4119 32.0899 38.3769 32.2681 38.3771C32.4462 38.3769 32.6225 38.4119 32.7871 38.48C32.9517 38.5481 33.1012 38.6479 33.2272 38.7739C33.3531 38.8998 33.453 39.0493 33.521 39.2139C33.5891 39.3785 33.6241 39.5549 33.6239 39.733C33.6241 39.9111 33.5891 40.0875 33.521 40.252C33.453 40.4166 33.3531 40.5661 33.2272 40.6921C33.1012 40.818 32.9517 40.9179 32.7871 40.986C32.6225 41.054 32.4462 41.089 32.2681 41.0888V41.089Z" fill="#FACC15"/>
</svg>
