<svg width="56" height="56" viewBox="0 0 56 56" fill="none" xmlns="http://www.w3.org/2000/svg">
<path d="M43.1702 17.0486L28.8228 43.1489C28.5266 43.6878 27.7655 43.691 27.4648 43.1547L12.833 17.0511C12.5054 16.4668 12.9966 15.7589 13.6475 15.8774L28.0103 18.489C28.102 18.5057 28.1958 18.5055 28.2874 18.4885L42.3498 15.881C42.9985 15.7607 43.492 16.4631 43.1702 17.0486V17.0486Z" fill="url(#paint0_linear_1523_576)"/>
<path d="M34.852 12.452L24.2346 14.5685C24.1498 14.5854 24.0729 14.6306 24.016 14.6968C23.9591 14.763 23.9255 14.8466 23.9204 14.9344L23.2673 26.1562C23.2637 26.2178 23.2743 26.2793 23.2981 26.336C23.322 26.3927 23.3585 26.4429 23.4048 26.4827C23.4511 26.5225 23.5059 26.5508 23.5648 26.5653C23.6237 26.5798 23.6851 26.5801 23.7442 26.5663L26.7002 25.8722C26.9768 25.8073 27.2267 26.0551 27.1698 26.3381L26.2916 30.7133C26.2326 31.0077 26.5042 31.2595 26.7869 31.1721L28.6127 30.6078C28.8957 30.5204 29.1678 30.7729 29.1079 31.0676L27.7122 37.94C27.6249 38.3699 28.1869 38.6043 28.4213 38.2358L28.5779 37.9896L37.2296 20.4242C37.3746 20.1301 37.1246 19.7947 36.8073 19.8571L33.7643 20.4545C33.4785 20.5106 33.2352 20.2397 33.3158 19.9552L35.3018 12.9512C35.3826 12.666 35.1384 12.3949 34.8522 12.452H34.852Z" fill="url(#paint1_linear_1523_576)"/>
<defs>
<linearGradient id="paint0_linear_1523_576" x1="12.4757" y1="17.9832" x2="28.2959" y2="39.1022" gradientUnits="userSpaceOnUse">
<stop stop-color="#41D1FF"/>
<stop offset="1" stop-color="#BD34FE"/>
</linearGradient>
<linearGradient id="paint1_linear_1523_576" x1="29.3415" y1="13.0267" x2="32.6336" y2="35.2252" gradientUnits="userSpaceOnUse">
<stop stop-color="#FFEA83"/>
<stop offset="0.083" stop-color="#FFDD35"/>
<stop offset="1" stop-color="#FFA800"/>
</linearGradient>
</defs>
</svg>
