<svg width="56" height="56" viewBox="0 0 56 56" fill="none" xmlns="http://www.w3.org/2000/svg">
<path d="M27.9026 12.5293L28.7328 14.0886C28.9195 14.3764 29.1217 14.6311 29.3599 14.8683C30.0581 15.5579 30.709 16.2938 31.3081 17.0712C32.7148 18.9183 33.6636 20.9695 34.3412 23.1879C34.7475 24.5431 34.9682 25.9333 34.9847 27.339C35.0528 31.5416 33.6121 35.1502 30.7073 38.1493C30.2348 38.6249 29.7243 39.0612 29.181 39.454C28.8932 39.454 28.7571 39.2333 28.6385 39.0301C28.4225 38.6533 28.2788 38.2396 28.2147 37.81C28.1126 37.3016 28.0455 36.7932 28.0786 36.2682V36.031C28.0552 35.9805 27.8015 12.6489 27.9026 12.5293V12.5293Z" fill="#599636"/>
<path d="M27.9027 12.4778C27.8686 12.4097 27.8346 12.4613 27.8006 12.4943C27.8171 12.8346 27.6985 13.1379 27.5128 13.4276C27.3087 13.7153 27.0384 13.936 26.7672 14.1732C25.2603 15.4778 24.0743 17.0537 23.1245 18.8162C21.8607 21.1882 21.2094 23.7304 21.0247 26.4068C20.9401 27.3721 21.3299 30.7785 21.6342 31.7614C22.4644 34.3706 23.9557 36.557 25.8874 38.4546C26.3618 38.9115 26.8693 39.3354 27.3942 39.7427C27.5468 39.7427 27.5634 39.6066 27.5984 39.5055C27.6653 39.2892 27.7163 39.0682 27.751 38.8444L28.0913 36.3032L27.9027 12.4778Z" fill="#6CAC48"/>
<path d="M28.7328 40.4866C28.7668 40.0978 28.9535 39.775 29.1567 39.4533C28.9525 39.3687 28.8009 39.2005 28.6823 39.0129C28.58 38.8352 28.4953 38.648 28.4295 38.4539C28.1923 37.7423 28.1418 36.9957 28.0737 36.2685V35.8281C27.9891 35.8962 27.9716 36.4717 27.9716 36.5572C27.9222 37.3258 27.8202 38.0901 27.6664 38.8447C27.6158 39.1499 27.5818 39.4542 27.3942 39.7255C27.3942 39.7595 27.3942 39.7935 27.4107 39.8441C27.7159 40.7423 27.7996 41.6571 27.8511 42.5894V42.9296C27.8511 43.336 27.8346 43.2505 28.1719 43.3866C28.308 43.4371 28.4596 43.4546 28.5957 43.5557C28.6978 43.5557 28.7143 43.4711 28.7143 43.4031L28.6638 42.8441V41.2848C28.6473 41.0126 28.6978 40.7423 28.7318 40.4876L28.7328 40.4866Z" fill="#C2BFBF"/>
</svg>
