<svg width="56" height="56" viewBox="0 0 56 56" fill="none" xmlns="http://www.w3.org/2000/svg">
<path d="M28 18.6689C23.8517 18.6689 21.2592 20.7425 20.222 24.8892C21.7778 22.8157 23.5926 22.0384 25.6666 22.5566C26.85 22.8522 27.6958 23.7108 28.6322 24.6608C30.1572 26.2084 31.9223 27.9995 35.778 27.9995C39.9259 27.9995 42.5188 25.926 43.5556 21.7789C42.0002 23.8524 40.1854 24.6301 38.111 24.1119C36.928 23.8163 36.0822 22.9577 35.1458 22.0076C33.6208 20.4601 31.8553 18.6689 28 18.6689V18.6689ZM20.222 27.9995C16.0742 27.9995 13.4812 30.0731 12.4445 34.2202C13.9998 32.1466 15.8147 31.369 17.889 31.8875C19.0721 32.1836 19.9178 33.0418 20.8542 33.9914C22.3792 35.539 24.1447 37.3305 28 37.3305C32.1483 37.3305 34.7408 35.257 35.778 31.1099C34.2222 33.1834 32.4074 33.9611 30.3334 33.4425C29.15 33.1472 28.3042 32.2883 27.3678 31.3386C25.8428 29.791 24.0778 27.9995 20.222 27.9995V27.9995Z" fill="#06B6D4"/>
</svg>
