<svg width="56" height="56" viewBox="0 0 56 56" fill="none" xmlns="http://www.w3.org/2000/svg">
<path d="M12.7405 23.3436C12.7405 23.3436 11.9827 22.7974 12.892 22.0681L15.0105 20.1737C15.0105 20.1737 15.6167 19.5359 16.2577 20.0916L35.8076 34.893V41.9906C35.8076 41.9906 35.7982 43.1051 34.3679 42.982L12.7405 23.3436Z" fill="#2489CA"/>
<path d="M17.7795 27.918L12.7404 32.4992C12.7404 32.4992 12.2227 32.8844 12.7404 33.5727L15.08 35.7007C15.08 35.7007 15.6357 36.2974 16.4566 35.6186L21.7987 31.5678L17.7795 27.918Z" fill="#1070B3"/>
<path d="M26.6263 27.9565L35.8677 20.9L35.8077 13.8402C35.8077 13.8402 35.413 12.2995 34.0964 13.1014L21.7988 24.2941L26.6263 27.9565Z" fill="#0877B9"/>
<path d="M34.368 42.9911C34.9047 43.5405 35.5551 43.3605 35.5551 43.3605L42.7569 39.8117C43.6788 39.1834 43.5494 38.4035 43.5494 38.4035V17.2117C43.5494 16.2803 42.5959 15.9583 42.5959 15.9583L36.3539 12.9494C34.9899 12.1064 34.0964 13.1009 34.0964 13.1009C34.0964 13.1009 35.2457 12.2737 35.8077 13.8398V41.8608C35.8077 42.0534 35.7666 42.2428 35.6846 42.4133C35.5204 42.7448 35.1636 43.0542 34.308 42.9248L34.368 42.9911Z" fill="#3C99D4"/>
</svg>
