<svg width="56" height="56" viewBox="0 0 56 56" fill="none" xmlns="http://www.w3.org/2000/svg">
<path d="M19.7853 23.5319H25.6532V23.996H20.3232V27.4893H25.3353V27.9534H20.3232V31.7887H25.7143V32.2529H19.7853V23.5319ZM26.1788 23.5319H26.8023L29.5651 27.3672L32.389 23.5319L36.2299 18.6602L29.9196 27.7702L33.1713 32.2529H32.5234L29.5651 28.1733L26.5945 32.2529H25.9588L29.235 27.7702L26.1788 23.5319ZM33.4036 23.996V23.5319H40.0905V23.996H37.0099V32.2529H36.472V23.996H33.4036Z" fill="white"/>
<path d="M12.4445 23.5322H13.1168L22.3882 37.3394L18.5568 32.2532L13.0068 24.1918L12.9823 32.2532H12.4445V23.5322Z" fill="white"/>
<path d="M40.0364 31.6482C40.1476 31.6482 40.2287 31.5635 40.2287 31.454C40.2287 31.3445 40.1476 31.2597 40.0364 31.2597C39.9265 31.2597 39.8441 31.3445 39.8441 31.454C39.8441 31.5635 39.9265 31.6482 40.0364 31.6482ZM40.5649 31.1372C40.5649 31.4605 40.7991 31.6717 41.1405 31.6717C41.5042 31.6717 41.724 31.454 41.724 31.0759V29.7448H41.431V31.0746C41.431 31.2845 41.325 31.3966 41.1379 31.3966C40.9705 31.3966 40.8566 31.2923 40.8527 31.1372H40.5649ZM42.1073 31.1202C42.1283 31.4566 42.4096 31.6717 42.8282 31.6717C43.2756 31.6717 43.5556 31.4461 43.5556 31.0863C43.5556 30.8034 43.396 30.647 43.0087 30.557L42.8007 30.5062C42.5548 30.4488 42.4553 30.3719 42.4553 30.2376C42.4553 30.0682 42.6097 29.9573 42.8413 29.9573C43.0611 29.9573 43.2128 30.0656 43.2403 30.2389H43.5255C43.5085 29.9221 43.2285 29.6992 42.8452 29.6992C42.4331 29.6992 42.1584 29.9221 42.1584 30.2572C42.1584 30.5336 42.3141 30.6978 42.6555 30.7774L42.8988 30.836C43.1487 30.8947 43.2586 30.9807 43.2586 31.1241C43.2586 31.291 43.0859 31.4122 42.8504 31.4122C42.5979 31.4122 42.4226 31.2988 42.3978 31.1202H42.1073Z" fill="white"/>
</svg>
