<svg width="56" height="56" viewBox="0 0 56 56" fill="none" xmlns="http://www.w3.org/2000/svg">
<path fill-rule="evenodd" clip-rule="evenodd" d="M18.9063 15.6084C17.1312 15.6084 15.8176 17.1621 15.8765 18.8471C15.9329 20.4659 15.8596 22.5625 15.3318 24.2723C14.8021 25.9869 13.9069 27.0734 12.4445 27.2128V28.7874C13.9069 28.9271 14.8021 30.0131 15.3317 31.7279C15.8596 33.4377 15.9329 35.5343 15.8764 37.1531C15.8176 38.8378 17.1311 40.3918 18.9066 40.3918H37.0961C38.8712 40.3918 40.1845 38.8381 40.1257 37.1531C40.0692 35.5343 40.1426 33.4377 40.6704 31.7279C41.2001 30.0131 42.093 28.9267 43.5556 28.7874V27.2128C42.0931 27.0731 41.2001 25.9871 40.6704 24.2723C40.1425 22.5628 40.0692 20.4659 40.1257 18.8471C40.1845 17.1624 38.8712 15.6084 37.0961 15.6084H18.9061H18.9063ZM33.5368 30.8642C33.5368 33.1844 31.8061 34.5915 28.9341 34.5915H24.0452C23.9053 34.5915 23.7712 34.5359 23.6723 34.437C23.5734 34.3381 23.5179 34.204 23.5179 34.0642V21.9361C23.5179 21.7963 23.5734 21.6621 23.6723 21.5632C23.7712 21.4644 23.9053 21.4088 24.0452 21.4088H28.9063C31.3011 21.4088 32.8727 22.706 32.8727 24.6976C32.8727 26.0955 31.8154 27.3469 30.4685 27.5661V27.639C32.3021 27.8402 33.5368 29.1101 33.5368 30.8642V30.8642ZM28.4011 23.0804H25.6135V27.0179H27.9613C29.7763 27.0179 30.7771 26.287 30.7771 24.9806C30.7769 23.7564 29.9165 23.0804 28.4011 23.0804ZM25.6135 28.5802V32.9194H28.5036C30.3934 32.9194 31.3943 32.1611 31.3943 30.7361C31.3943 29.311 30.3653 28.5799 28.3821 28.5799H25.6135V28.5802Z" fill="#7952B3"/>
</svg>
