<svg width="56" height="56" viewBox="0 0 56 56" fill="none" xmlns="http://www.w3.org/2000/svg">
<path d="M34.0012 33.8597C35.1493 33.7408 36.0203 32.7511 35.9806 31.5633C35.9411 30.3756 34.9513 29.4254 33.7636 29.4254H33.6845C32.4571 29.465 31.507 30.4943 31.5466 31.7217C31.5862 32.3156 31.8237 32.8302 32.18 33.1866C30.8339 35.8393 28.7753 37.7792 25.6872 39.4025C23.5889 40.511 21.4115 40.907 19.2341 40.6299C17.4525 40.3923 16.0668 39.6005 15.1957 38.2939C13.9289 36.3539 13.8102 34.2555 14.8791 32.1572C15.6314 30.6527 16.819 29.5441 17.5712 28.9898C17.4129 28.4752 17.1753 27.6042 17.0566 26.9708C11.3159 31.1279 11.9099 36.7499 13.6518 39.4025C14.9583 41.3821 17.6109 42.6095 20.5405 42.6095C21.3323 42.6095 22.124 42.5302 22.9159 42.3324C27.9835 41.3425 31.8238 38.3335 34.0012 33.8597V33.8597ZM40.9691 28.9503C37.9602 25.4266 33.5261 23.4867 28.4586 23.4867H27.8251C27.4688 22.7741 26.7166 22.2989 25.8852 22.2989H25.806C24.5788 22.3385 23.6287 23.3678 23.6682 24.5953C23.7078 25.783 24.6975 26.7332 25.8852 26.7332H25.9643C26.8353 26.6936 27.5876 26.1393 27.9043 25.387H28.6169C31.6258 25.387 34.4763 26.258 37.0497 27.9605C39.0292 29.267 40.4545 30.9695 41.2462 33.0282C41.9192 34.6911 41.8796 36.3143 41.167 37.7001C40.0585 39.7984 38.1978 40.9466 35.7432 40.9466C34.1595 40.9466 32.6552 40.4714 31.8633 40.1151C31.4278 40.511 30.636 41.1444 30.0817 41.5405C31.7842 42.3322 33.5261 42.7678 35.1889 42.7678C38.9896 42.7678 41.8005 40.6694 42.8695 38.5711C44.0175 36.2747 43.9383 32.3156 40.9691 28.9503V28.9503ZM20.8572 34.5326C20.8968 35.7204 21.8866 36.6705 23.0743 36.6705H23.1535C24.3808 36.631 25.3309 35.6016 25.2913 34.3742C25.2518 33.1864 24.262 32.2363 23.0743 32.2363H22.9951C22.9159 32.2363 22.7971 32.2363 22.7181 32.2758C21.0948 29.5836 20.4218 26.6539 20.6594 23.4866C20.8176 21.1111 21.6095 19.0523 22.9951 17.3498C24.1432 15.8849 26.3603 15.1722 27.8648 15.1328C32.0612 15.0535 33.8427 20.2796 33.9616 22.378C34.4763 22.4967 35.3472 22.7739 35.9411 22.9719C35.466 16.5582 31.507 13.2324 27.7064 13.2324C24.1432 13.2324 20.8572 15.8059 19.5507 19.6067C17.7296 24.6744 18.9173 29.5441 21.1343 33.3845C20.9365 33.6616 20.8176 34.0972 20.8572 34.5327V34.5326Z" fill="#8B5CF6"/>
</svg>
