<svg width="56" height="56" viewBox="0 0 56 56" fill="none" xmlns="http://www.w3.org/2000/svg">
<path fill-rule="evenodd" clip-rule="evenodd" d="M42.0318 21.2486L42.1588 21.5449C43.09 23.5978 43.5556 25.7565 43.5556 27.9999C43.5556 36.5713 36.5714 43.5554 28 43.5554C19.4286 43.5554 12.4445 36.5713 12.4445 27.9999C12.4445 19.4285 19.4286 12.4443 28 12.4443C30.5186 12.4443 32.91 13.0369 35.1111 14.1375L35.4074 14.2856L35.1534 14.4972C34.5186 15.0052 34.0318 15.6401 33.7143 16.3808L33.6297 16.5925L33.4392 16.5078C31.7249 15.7036 29.9048 15.2803 28 15.2803C20.9736 15.2803 15.2804 20.9734 15.2804 27.9999C15.2804 35.0263 20.9736 40.7195 28 40.7195C35.0265 40.7195 40.7196 35.0051 40.7196 27.9999C40.7196 26.328 40.4022 24.6771 39.746 23.1322L39.6614 22.9205L39.873 22.8358C40.6137 22.5607 41.291 22.0951 41.8202 21.5025L42.0318 21.2486ZM38.1799 21.5449C39.9683 21.5449 41.418 20.0951 41.418 18.3068C41.418 16.5184 39.9683 15.0687 38.1799 15.0687C36.3916 15.0687 34.9418 16.5184 34.9418 18.3068C34.9418 20.0951 36.3916 21.5449 38.1799 21.5449ZM27.9999 20.91C24.0846 20.91 20.91 24.0846 20.91 28C20.91 31.9153 24.0846 35.0899 27.9999 35.0899C31.9152 35.0899 35.0898 31.9153 35.0898 28C35.0898 24.0846 31.9152 20.91 27.9999 20.91Z" fill="#3880FF"/>
</svg>
