<svg width="56" height="56" viewBox="0 0 56 56" fill="none" xmlns="http://www.w3.org/2000/svg">
<path d="M41.7161 12.4443L39.217 40.4411L27.9832 43.5554L16.7804 40.4455L14.2839 12.4443H41.7161Z" fill="#264DE4"/>
<path d="M37.0774 38.6579L39.2131 14.7334H28V41.1745L37.0774 38.6579Z" fill="#2965F1"/>
<path d="M20.0071 25.1191L20.3149 28.5533H28V25.1191H20.0071Z" fill="#EBEBEB"/>
<path d="M28.0001 18.168H27.9882H19.3887L19.7009 21.6022H28.0001V18.168Z" fill="#EBEBEB"/>
<path d="M28.0001 37.6112V34.0382L27.985 34.0422L24.1603 33.0095L23.9158 30.2705H22.0573H20.4684L20.9495 35.6627L27.9843 37.6156L28.0001 37.6112Z" fill="#EBEBEB"/>
<path d="M32.217 28.5531L31.8184 33.007L27.9882 34.0408V37.6137L35.0285 35.6625L35.0802 35.0823L35.8872 26.0411L35.971 25.1189L36.5909 18.168H27.9882V21.6022H32.8273L32.5148 25.1189H27.9882V28.5531H32.217Z" fill="#1E2235"/>
</svg>
