<svg width="56" height="56" viewBox="0 0 56 56" fill="none" xmlns="http://www.w3.org/2000/svg">
<path fill-rule="evenodd" clip-rule="evenodd" d="M30.6545 16.0068L37.0431 19.6954C37.2276 19.5003 37.4392 19.3328 37.6715 19.1981C38.9964 18.4364 40.6864 18.8887 41.456 20.2137C42.2177 21.5387 41.7655 23.2286 40.4405 23.9982C40.2099 24.131 39.9614 24.2299 39.7026 24.292V31.672C39.9586 31.7342 40.2044 31.8324 40.4326 31.9639C41.7655 32.7335 42.2177 34.4234 41.4481 35.7484C40.6864 37.0733 38.9886 37.5256 37.6636 36.764C37.4069 36.6167 37.1756 36.429 36.9787 36.208L30.629 39.874C30.722 40.1556 30.7693 40.4503 30.7689 40.7468C30.7689 42.2701 29.5313 43.5158 28 43.5158C26.4687 43.5158 25.2311 42.278 25.2311 40.7468C25.2311 40.4746 25.2702 40.2117 25.3431 39.9634L18.9562 36.2758C18.7738 36.4671 18.5651 36.6314 18.3364 36.764C17.0035 37.5256 15.3136 37.0733 14.5518 35.7484C13.7902 34.4234 14.2425 32.7335 15.5674 31.9639C15.7956 31.8324 16.0414 31.7341 16.2973 31.6719V24.292C16.0386 24.2299 15.7901 24.131 15.5595 23.9982C14.2345 23.2366 13.7822 21.5387 14.544 20.2137C15.3057 18.8887 17.0034 18.4364 18.3284 19.1981C18.5595 19.3321 18.7701 19.4985 18.9538 19.6923L25.3443 16.0026C25.2689 15.747 25.2308 15.4818 25.2311 15.2152C25.2311 13.6841 26.4687 12.4463 28 12.4463C29.5313 12.4463 30.7689 13.684 30.7689 15.2152C30.7689 15.4904 30.729 15.7561 30.6545 16.0068ZM29.989 17.1433L36.3928 20.8406C36.2908 21.197 36.2616 21.5704 36.3068 21.9383C36.352 22.3063 36.4708 22.6615 36.656 22.9826C37.0458 23.6607 37.6808 24.1103 38.3856 24.2855V31.6747C38.3497 31.6835 38.3139 31.6931 38.2784 31.7032L29.9145 17.2173C29.9398 17.1931 29.9647 17.1684 29.989 17.1434V17.1433ZM26.0872 17.2189L17.7234 31.7046C17.6873 31.6942 17.6509 31.6844 17.6144 31.6755V24.2855C18.3191 24.1103 18.9542 23.6607 19.344 22.9826C19.5296 22.6608 19.6485 22.305 19.6935 21.9362C19.7385 21.5675 19.7088 21.1935 19.6061 20.8365L26.0081 17.1402C26.0339 17.1669 26.0603 17.1932 26.0872 17.2188V17.2189ZM28.7737 17.8751L37.1355 32.3576C36.9439 32.5403 36.7798 32.7498 36.648 32.9794C36.5166 33.2076 36.4183 33.4534 36.3562 33.7094H19.644C19.5818 33.4534 19.4835 33.2076 19.352 32.9794C19.2198 32.7514 19.0559 32.5432 18.8653 32.3611L27.2287 17.8757C27.4794 17.9479 27.7391 17.9844 28 17.9842C28.2686 17.9842 28.5282 17.9461 28.7737 17.8751ZM30.0477 38.8814L36.4099 35.2081C36.3909 35.1481 36.3738 35.0875 36.3589 35.0264H19.6405C19.6316 35.0623 19.622 35.098 19.6117 35.1335L26.0051 38.8249C26.2633 38.5564 26.5731 38.343 26.9159 38.1974C27.2588 38.0519 27.6275 37.9772 28 37.9779C28.3855 37.9772 28.7668 38.0572 29.1195 38.2128C29.4722 38.3685 29.7884 38.5962 30.0477 38.8814V38.8814Z" fill="#E535AB"/>
</svg>
